<?xml version="1.0" standalone="no"?>
<!DOCTYPE svg PUBLIC "-//W3C//DTD SVG 20010904//EN"
 "http://www.w3.org/TR/2001/REC-SVG-20010904/DTD/svg10.dtd">
<svg version="1.0" xmlns="http://www.w3.org/2000/svg"
 width="1188.000000pt" height="719.000000pt" viewBox="0 0 1188.000000 719.000000"
 preserveAspectRatio="xMidYMid meet">
<metadata>
Created by potrace 1.16, written by Peter Selinger 2001-2019
</metadata>
<g transform="translate(0.000000,719.000000) scale(0.100000,-0.100000)"
fill="#000000" stroke="none">
<path d="M0 3595 l0 -3595 2858 2 c1571 0 2841 3 2822 4 -19 2 -98 9 -175 15
-684 52 -1384 242 -1981 538 -462 228 -820 478 -1169 815 l-100 97 -396 9
c-511 12 -732 32 -978 86 -449 100 -727 307 -832 618 -15 46 -31 110 -34 143
-8 66 3 98 255 763 456 1201 603 1576 638 1625 140 192 387 448 562 584 191
149 335 233 649 381 l194 91 121 111 c422 386 894 679 1446 900 860 344 1836
469 2815 362 978 -106 1921 -474 2624 -1022 304 -238 616 -563 799 -834 l50
-75 184 -6 c911 -32 1393 -236 1509 -640 17 -60 18 -19 18 1281 l1 1342 -5940
0 -5940 0 0 -3595z"/>
<path d="M5800 7010 c-365 -42 -792 -298 -1105 -662 -95 -110 -190 -236 -183
-243 4 -4 418 -33 688 -47 291 -16 1377 -16 1660 0 284 16 684 43 689 48 6 6
-123 171 -217 277 -268 302 -608 519 -944 603 -90 22 -130 26 -308 29 -113 2
-239 0 -280 -5z"/>
<path d="M4880 6900 c-398 -83 -768 -204 -1130 -370 -199 -91 -494 -255 -485
-270 2 -4 26 -10 52 -13 26 -3 127 -18 223 -32 210 -31 661 -85 711 -85 33 0
39 5 95 87 169 250 445 534 650 670 30 20 54 37 54 39 0 8 -39 2 -170 -26z"/>
<path d="M7011 6926 c2 -2 51 -39 109 -82 200 -150 452 -417 604 -641 44 -65
53 -73 82 -73 66 0 548 58 789 95 55 9 122 19 148 22 26 3 50 9 52 14 6 9
-179 116 -362 208 -379 189 -788 331 -1230 426 -148 32 -203 41 -192 31z"/>
<path d="M2900 6019 c-438 -341 -775 -737 -994 -1168 -69 -135 -110 -231 -102
-238 6 -7 176 -30 351 -47 247 -25 490 -36 810 -36 267 0 703 15 713 25 2 1
19 74 38 162 85 395 222 783 394 1109 l58 112 -56 6 c-380 44 -930 122 -1037
146 -22 5 -47 10 -55 10 -9 0 -63 -37 -120 -81z"/>
<path d="M8920 6080 c-221 -40 -950 -140 -1017 -140 -7 0 21 -67 66 -157 87
-174 151 -325 216 -508 l43 -120 38 3 c22 2 107 10 189 17 345 33 614 47 1029
53 l438 7 -72 95 c-143 188 -296 352 -476 510 -147 128 -318 260 -336 259 -7
0 -60 -9 -118 -19z"/>
<path d="M4338 5838 c-152 -274 -262 -542 -352 -858 -61 -214 -103 -397 -93
-406 4 -4 116 3 250 15 488 45 1004 115 1947 262 849 133 1190 183 1535 229
171 22 331 44 357 48 l47 7 -58 155 c-71 190 -152 368 -233 515 -33 60 -61
111 -62 111 -1 1 -41 -2 -91 -6 -717 -67 -1785 -84 -2545 -40 -232 13 -587 39
-626 45 -29 5 -32 2 -76 -77z"/>
<path d="M1945 5387 c-317 -167 -606 -418 -862 -750 -48 -62 -77 -135 -577
-1452 -325 -854 -312 -816 -298 -884 6 -31 30 -93 53 -138 131 -262 445 -410
990 -468 366 -39 1264 -44 1739 -11 719 51 1184 111 2685 346 1610 252 2259
323 3080 337 403 7 655 -4 1106 -47 415 -40 420 -41 426 -57 8 -21 -104 -241
-185 -364 -164 -248 -397 -493 -656 -687 -38 -29 -66 -52 -63 -52 21 0 340
136 472 201 453 222 753 502 913 853 230 505 721 1691 871 2105 59 161 59 175
13 271 -109 224 -449 360 -1042 415 -274 25 -976 39 -1330 26 -824 -32 -1371
-96 -3060 -361 -1655 -259 -2280 -327 -3115 -337 -482 -6 -625 0 -1145 47
-480 44 -441 38 -434 69 24 98 134 353 233 536 42 80 205 334 280 436 7 10 12
19 10 19 -2 0 -49 -24 -104 -53z m7989 -765 c3 -5 24 -151 47 -325 24 -174 46
-317 49 -317 3 0 106 138 230 305 219 298 225 305 255 300 16 -3 71 -10 120
-15 159 -19 476 -73 473 -81 -2 -5 -145 -172 -319 -371 -174 -200 -384 -441
-466 -537 l-150 -173 -93 -332 c-51 -182 -94 -332 -95 -334 -2 -2 -86 3 -187
12 -100 8 -235 18 -299 21 l-116 7 99 341 99 342 -56 225 c-63 255 -216 844
-219 847 -1 2 -20 -57 -40 -130 -21 -72 -47 -160 -57 -193 l-19 -62 -200 -7
c-110 -4 -202 -11 -205 -15 -4 -7 -405 -1356 -405 -1364 0 -2 -42 -6 -92 -10
-51 -3 -189 -14 -305 -23 -117 -9 -216 -14 -219 -10 -4 4 84 311 195 683 111
372 201 677 199 678 -2 2 -92 -6 -200 -18 -109 -11 -200 -17 -203 -14 -5 5
128 454 137 464 7 6 335 41 603 63 207 17 505 35 750 44 178 7 684 6 689 -1z
m-2204 -129 c0 -6 -550 -1831 -554 -1840 -2 -4 -629 -84 -632 -80 -3 2 554
1835 561 1844 2 3 571 80 603 82 12 0 22 -2 22 -6z m-1434 -210 c-3 -10 -98
-316 -211 -681 -114 -365 -205 -665 -203 -667 1 -1 141 18 310 43 169 25 310
43 313 40 4 -3 -130 -461 -139 -475 -3 -4 -1271 -190 -1275 -187 -3 3 341
1107 540 1730 l39 120 297 46 c358 55 336 53 329 31z m-818 -125 c-3 -7 -134
-422 -293 -923 -159 -500 -289 -911 -290 -913 -4 -6 -625 -85 -630 -81 -5 5
580 1837 589 1846 6 6 542 80 590 82 26 1 37 -3 34 -11z m-781 -100 c-2 -7
-37 -113 -76 -236 -40 -123 -77 -225 -84 -227 -7 -2 -99 -13 -206 -24 -106
-11 -195 -21 -197 -23 -2 -2 -103 -312 -225 -688 -122 -377 -222 -686 -223
-687 -4 -6 -617 -55 -622 -50 -3 3 419 1300 443 1364 5 13 -4 15 -73 9 -43 -3
-136 -9 -206 -12 l-127 -6 80 239 80 240 172 7 c282 11 794 54 1092 90 149 18
178 19 172 4z m-2967 -33 c96 -13 230 -30 298 -36 67 -7 122 -16 122 -21 0 -4
-52 -117 -116 -250 -195 -408 -341 -745 -418 -966 -42 -120 -43 -133 -17 -156
36 -33 369 -48 444 -22 80 29 80 29 192 471 74 291 138 594 171 801 l17 111
336 -5 c185 -2 337 -5 338 -6 5 -4 -429 -1302 -462 -1382 -43 -104 -74 -160
-127 -231 -69 -91 -210 -186 -343 -230 -76 -26 -89 -27 -280 -27 -319 1 -553
31 -660 83 -112 56 -194 168 -215 298 -10 59 -7 110 12 198 10 46 462 1377
474 1397 3 5 18 7 32 3 15 -3 106 -16 202 -30z m8745 -1136 c123 -34 181 -168
124 -287 -54 -110 -212 -139 -303 -54 -62 59 -82 151 -47 227 21 47 80 102
119 111 15 3 32 7 37 9 18 6 29 5 70 -6z"/>
<path d="M10361 2844 c-51 -27 -85 -86 -85 -148 0 -138 149 -212 249 -124 105
91 50 271 -86 284 -29 3 -56 -1 -78 -12z m112 -45 c40 -21 49 -59 22 -89 -14
-15 -14 -21 0 -53 21 -50 19 -77 -4 -77 -14 0 -22 12 -30 45 -10 41 -14 45
-41 45 -29 0 -30 -2 -30 -45 0 -38 -3 -45 -20 -45 -19 0 -20 7 -20 108 0 60 3
112 7 115 11 11 93 8 116 -4z"/>
<path d="M10397 2773 c-4 -3 -7 -19 -7 -35 0 -24 4 -28 29 -28 52 0 66 51 18
64 -28 7 -32 7 -40 -1z"/>
<path d="M11842 4332 c-115 -337 -530 -1349 -847 -2065 -113 -255 -133 -292
-206 -391 -190 -256 -424 -456 -724 -617 -222 -120 -407 -198 -826 -348 -225
-81 -272 -102 -390 -172 -160 -96 -485 -257 -660 -328 -562 -226 -1139 -357
-1764 -400 -60 -5 1142 -9 2673 -10 l2782 -1 0 2215 c0 1218 -1 2215 -2 2215
-2 0 -18 -44 -36 -98z"/>
<path d="M8445 2160 c-77 -4 -150 -8 -162 -9 -18 -1 -26 -18 -58 -118 -57
-181 -158 -430 -250 -615 -46 -93 -81 -168 -77 -168 60 0 653 -80 935 -126
l217 -35 83 62 c314 239 624 560 821 851 33 48 58 90 55 92 -6 7 -256 36 -448
52 -202 17 -900 26 -1116 14z"/>
<path d="M7990 2133 c-19 -2 -111 -10 -205 -19 -522 -46 -995 -110 -2085 -280
-371 -58 -856 -132 -1078 -164 -222 -32 -406 -60 -409 -63 -5 -6 137 -288 160
-318 11 -15 30 -15 242 1 500 39 680 45 1420 45 475 0 805 -4 945 -13 255 -15
587 -39 650 -47 l45 -6 69 125 c88 162 179 370 250 569 60 169 62 178 44 175
-7 0 -29 -3 -48 -5z"/>
<path d="M3720 1554 c-290 -33 -635 -62 -918 -76 l-242 -12 32 -34 c42 -44
244 -213 341 -287 l76 -57 218 36 c287 47 874 126 934 126 3 0 -31 74 -75 164
l-81 165 -40 -1 c-22 0 -132 -11 -245 -24z"/>
<path d="M5420 1139 c-211 -7 -496 -23 -822 -46 -49 -3 -88 -9 -88 -12 0 -3
30 -46 66 -94 260 -346 587 -604 927 -731 200 -75 241 -81 532 -80 249 0 264
1 357 26 311 84 597 256 853 513 101 101 305 346 305 366 0 6 -175 19 -500 39
-468 28 -1116 36 -1630 19z"/>
<path d="M4080 1044 c-210 -23 -627 -80 -799 -110 l-35 -6 92 -53 c341 -201
714 -361 1114 -479 175 -52 463 -119 558 -131 l45 -6 -25 18 c-188 136 -340
270 -460 408 -83 95 -235 291 -268 347 -19 33 -27 33 -222 12z"/>
<path d="M7728 993 c-160 -239 -405 -499 -619 -656 -55 -40 -94 -73 -89 -75 5
-2 47 4 92 13 439 88 819 210 1203 387 194 89 492 254 481 265 -16 16 -887
133 -992 133 -27 0 -37 -8 -76 -67z"/>
</g>
</svg>
