<?xml version="1.0" encoding="UTF-8" standalone="no"?>
<!-- Created with Inkscape (http://www.inkscape.org/) -->

<svg
   xmlns:dc="http://purl.org/dc/elements/1.1/"
   xmlns:cc="http://creativecommons.org/ns#"
   xmlns:rdf="http://www.w3.org/1999/02/22-rdf-syntax-ns#"
   xmlns:svg="http://www.w3.org/2000/svg"
   xmlns="http://www.w3.org/2000/svg"
   xmlns:sodipodi="http://sodipodi.sourceforge.net/DTD/sodipodi-0.dtd"
   xmlns:inkscape="http://www.inkscape.org/namespaces/inkscape"
   width="167.7896"
   height="45.893341"
   viewBox="0 0 44.394332 12.142613"
   version="1.1"
   id="svg10685"
   inkscape:version="0.92.0 r15299"
   sodipodi:docname="cimc.svg">
  <defs
     id="defs10679" />
  <sodipodi:namedview
     id="base"
     pagecolor="#ffffff"
     bordercolor="#666666"
     borderopacity="1.0"
     inkscape:pageopacity="0.0"
     inkscape:pageshadow="2"
     inkscape:zoom="5.3780329"
     inkscape:cx="83.394804"
     inkscape:cy="22.446671"
     inkscape:document-units="mm"
     inkscape:current-layer="layer1"
     showgrid="false"
     fit-margin-top="0"
     fit-margin-left="0"
     fit-margin-right="0"
     fit-margin-bottom="0"
     units="px"
     inkscape:window-width="1280"
     inkscape:window-height="744"
     inkscape:window-x="-4"
     inkscape:window-y="-4"
     inkscape:window-maximized="1" />
  <metadata
     id="metadata10682">
    <rdf:RDF>
      <cc:Work
         rdf:about="">
        <dc:format>image/svg+xml</dc:format>
        <dc:type
           rdf:resource="http://purl.org/dc/dcmitype/StillImage" />
        <dc:title></dc:title>
      </cc:Work>
    </rdf:RDF>
  </metadata>
  <g
     inkscape:label="Layer 1"
     inkscape:groupmode="layer"
     id="layer1"
     transform="translate(1.0677837,-138.08984)">
    <g
       id="g10711"
       transform="translate(0.13229003,-0.13228786)">
      <path
         d="m 9.4837973,141.12267 c -0.280109,-0.11853 -0.69391,-0.26211 -1.049161,-0.34819 -0.524578,-0.12594 -1.064328,-0.18803 -1.620308,-0.18803 -1.313392,0 -2.359382,0.32914 -3.135492,0.98883 -0.77787,0.66076 -1.16558,1.54623 -1.16558,2.65889 0,1.11654 0.395121,2.00801 1.18745,2.66876 0.79234,0.66146 1.850681,0.99378 3.171121,0.99378 0.516819,0 1.04811,-0.0554 1.58468,-0.16369 0.34149,-0.0691 0.693211,-0.14499 1.033989,-0.27305 0.215551,-0.0804 0.432512,0.0727 0.432512,0.30586 v 1.82845 c 0,0.16474 -0.103722,0.30056 -0.258591,0.3302 -0.415221,0.0825 -0.83149,0.1471 -1.24883,0.19579 -0.62865,0.0737 -1.263301,0.11218 -1.90394,0.11218 -2.387959,0 -4.247451,-0.52952 -5.580239,-1.58432 -1.332442,-1.05375 -1.999192,-2.5266 -1.999192,-4.41396 0,-1.80411 0.656521,-3.23321 1.970611,-4.2926 1.31304,-1.05904 3.09775,-1.58715 5.349529,-1.58715 0.751062,0 1.465791,0.0519 2.141,0.15558 0.445212,0.0674 0.86537,0.17215 1.269302,0.27128 0.15381,0.0381 0.26035,0.16828 0.26035,0.32879 v 1.70956 c 0,0.2466 -0.159102,0.42193 -0.439211,0.30304"
         style="fill:#165096;fill-opacity:1;fill-rule:nonzero;stroke:none;stroke-width:0.35277778"
         id="path1264"
         inkscape:connector-curvature="0" />
      <path
         d="m 42.623108,141.12267 c -0.279752,-0.11853 -0.69356,-0.26211 -1.04951,-0.34819 -0.524232,-0.12524 -1.064691,-0.18803 -1.619612,-0.18803 -1.313738,0 -2.35902,0.32949 -3.135839,0.98883 -0.77787,0.66111 -1.16522,1.54623 -1.16522,2.65889 0,1.11654 0.394401,2.00801 1.186389,2.66876 0.793041,0.66146 1.851382,0.99378 3.17182,0.99378 0.516821,0 1.047753,-0.0543 1.583981,-0.16369 0.342191,-0.0684 0.692851,-0.14499 1.03505,-0.27305 0.21413,-0.0804 0.4318,0.0727 0.4318,0.30586 v 1.82845 c 0,0.16474 -0.10337,0.30056 -0.2593,0.3302 -0.4138,0.0825 -0.83149,0.14781 -1.248119,0.19579 -0.6283,0.0741 -1.262602,0.11218 -1.903952,0.11218 -2.38724,0 -4.24779,-0.52846 -5.580229,-1.58432 -1.33245,-1.05375 -1.999549,-2.5266 -1.999549,-4.41396 0,-1.80411 0.656868,-3.23321 1.970969,-4.2926 1.3141,-1.05904 3.097741,-1.58715 5.350581,-1.58715 0.750358,0 1.46403,0.0519 2.140659,0.15558 0.444849,0.0674 0.863949,0.17215 1.26859,0.27128 0.15381,0.0381 0.26035,0.16828 0.26035,0.32879 v 1.70956 c 0,0.2466 -0.159459,0.42193 -0.438859,0.30304"
         style="fill:#165096;fill-opacity:1;fill-rule:nonzero;stroke:none;stroke-width:0.35277778"
         id="path1268"
         inkscape:connector-curvature="0" />
      <path
         d="m 14.191517,138.43923 c 0.243769,0 0.443439,0.18062 0.443439,0.40322 l -0.004,10.64931 c 0,0.4198 -0.25223,0.44414 -0.456488,0.44414 h -2.575981 c -0.248359,0 -0.50306,-0.14216 -0.50306,-0.39475 l 7.99e-4,-10.69764 c 0,-0.21978 0.151699,-0.40322 0.434268,-0.40322 z"
         style="fill:#165096;fill-opacity:1;fill-rule:nonzero;stroke:none;stroke-width:0.35277778"
         id="path1272"
         inkscape:connector-curvature="0" />
      <path
         d="m 22.620608,149.96003 c -0.69568,0 -1.043871,-0.28011 -1.22555,-0.86854 l -2.047521,-6.65021 c -0.0339,-0.10901 -0.190849,-0.0857 -0.189801,0.012 l 0.036,7.0612 c 0.0011,0.25647 -0.12841,0.43992 -0.412052,0.43992 h -2.443339 c -0.333719,0 -0.462489,-0.0981 -0.462489,-0.43533 l -0.0011,-10.60521 c 0,-0.22436 0.14746,-0.47448 0.554919,-0.47448 h 3.444531 c 0.808561,0 1.394529,0.18556 1.65417,1.02376 l 1.8602,5.98276 c 0.0473,0.1531 0.22225,0.1531 0.270219,0 l 1.8595,-5.98276 c 0.25999,-0.8382 0.84596,-1.02376 1.655231,-1.02376 h 3.444171 c 0.407458,0 0.554918,0.25012 0.554918,0.47448 l -0.0011,10.60521 c 0,0.33725 -0.129119,0.43533 -0.46214,0.43533 h -2.443689 c -0.282929,0 -0.413099,-0.18345 -0.412401,-0.43992 l 0.0363,-7.0612 c 7.94e-4,-0.0977 -0.15558,-0.121 -0.189801,-0.012 l -2.047518,6.65021 c -0.18238,0.58843 -0.530582,0.86854 -1.225902,0.86854 z"
         style="fill:#165096;fill-opacity:1;fill-rule:nonzero;stroke:none;stroke-width:0.35277778"
         id="path1276"
         inkscape:connector-curvature="0" />
    </g>
  </g>
</svg>
