<?xml version="1.0" standalone="no"?>
<!DOCTYPE svg PUBLIC "-//W3C//DTD SVG 20010904//EN"
 "http://www.w3.org/TR/2001/REC-SVG-20010904/DTD/svg10.dtd">
<svg version="1.0" xmlns="http://www.w3.org/2000/svg"
 width="493.000000pt" height="55.000000pt" viewBox="0 0 493.000000 55.000000"
 preserveAspectRatio="xMidYMid meet">
<metadata>
Created by potrace 1.16, written by Peter Selinger 2001-2019
</metadata>
<g transform="translate(0.000000,55.000000) scale(0.100000,-0.100000)"
fill="#000000" stroke="none">
<path d="M4690 511 c-23 -44 -1 -85 112 -209 26 -30 51 -65 54 -79 9 -35 -23
-74 -77 -95 -24 -9 -37 -17 -29 -17 30 -1 95 36 109 62 21 39 9 64 -74 161
-87 101 -100 127 -86 168 11 32 7 37 -9 9z"/>
<path d="M3051 473 c14 -66 37 -122 68 -167 32 -46 95 -106 112 -106 21 0 79
68 79 92 0 18 -4 15 -19 -17 -25 -55 -55 -71 -87 -50 -54 35 -128 164 -140
242 -3 24 -10 43 -14 43 -4 0 -4 -17 1 -37z"/>
<path d="M4633 492 c-18 -10 -32 -21 -32 -26 1 -5 -5 -12 -12 -17 -10 -6 -9
-16 6 -48 14 -33 15 -43 5 -56 -11 -13 -15 -13 -33 0 -18 12 -25 11 -70 -11
l-49 -25 -28 33 -27 33 -52 -33 c-29 -17 -54 -32 -57 -32 -2 0 -4 18 -4 39 l0
40 -59 -41 c-43 -30 -61 -48 -65 -70 -7 -35 -26 -28 -26 10 0 68 -3 70 -103
71 -50 1 -89 -1 -86 -3 2 -3 42 -6 87 -7 91 -3 88 -1 94 -79 4 -46 29 -46 44
-1 10 30 73 89 97 91 4 0 7 -29 7 -65 0 -36 2 -65 4 -65 13 0 66 23 66 29 0 4
-5 12 -12 19 -7 7 -8 12 -2 12 12 0 44 -32 44 -43 0 -4 -9 -7 -20 -7 -28 0
-80 -27 -81 -43 -2 -28 -17 42 -18 86 -1 26 -4 47 -8 47 -18 -1 -47 -32 -64
-69 -17 -39 -53 -69 -63 -53 -3 5 -8 32 -12 60 -4 29 -10 55 -15 58 -5 2 -21
-3 -36 -13 -26 -16 -27 -16 -14 0 12 16 8 17 -63 17 l-76 0 -47 -45 c-25 -25
-47 -44 -48 -42 -1 1 -7 21 -14 45 -16 57 -47 58 -91 2 -17 -22 -35 -40 -40
-40 -4 0 -10 18 -14 40 -7 46 -16 49 -57 19 -20 -14 -27 -25 -21 -32 14 -18
25 -100 12 -92 -5 3 -10 21 -10 40 0 19 -5 37 -11 41 -8 4 -9 -1 -4 -17 4 -13
-10 2 -31 33 -21 32 -42 58 -47 58 -6 0 -26 -10 -45 -22 -23 -14 -31 -23 -21
-26 22 -7 49 -34 43 -43 -3 -5 -14 -9 -24 -9 -25 0 -80 -47 -80 -69 0 -45 63
-55 107 -16 l28 24 -31 1 c-38 0 -66 26 -39 36 29 11 69 -9 94 -48 22 -35 25
-36 45 -23 26 19 36 19 36 0 0 -28 15 -15 55 48 26 40 48 63 62 65 19 3 23 -4
34 -57 6 -34 15 -61 19 -61 4 0 19 11 33 24 27 25 27 25 145 0 44 -9 16 -74
-33 -74 -14 0 -29 9 -35 20 -10 20 -12 20 -35 3 -13 -10 -25 -26 -25 -35 0
-14 8 -18 40 -18 76 0 170 58 170 106 0 25 -13 38 -53 50 l-29 10 23 19 c16
15 21 16 17 5 -4 -10 4 -22 23 -32 29 -17 29 -17 29 10 0 32 -16 53 -36 45 -8
-3 -14 -1 -14 5 0 5 9 12 21 15 25 7 34 -13 46 -98 11 -83 32 -85 95 -14 l48
54 0 -53 0 -54 33 21 c33 20 33 20 50 1 24 -28 68 -25 98 6 l24 26 -25 -7
c-29 -7 -67 16 -56 33 19 31 85 2 111 -49 15 -28 16 -29 40 -13 23 15 25 15
25 -1 0 -9 3 -15 8 -13 59 29 60 30 64 79 6 58 15 71 32 47 11 -16 15 -16 34
-2 24 17 28 44 10 62 -8 8 -18 6 -40 -9 -22 -16 -28 -17 -28 -6 0 8 14 20 30
27 17 7 30 14 30 17 0 2 -9 21 -20 43 -28 54 -25 60 6 14 14 -21 55 -69 90
-106 49 -51 64 -73 64 -96 0 -56 -52 -70 -79 -21 -12 23 -12 29 2 58 l16 33
-27 -6 c-72 -17 -83 -111 -16 -136 35 -14 117 6 148 35 40 37 34 67 -27 133
-83 90 -111 131 -116 172 l-6 38 -32 -16z m-193 -199 c18 -32 36 -51 38 -45 2
7 -4 22 -13 32 -16 18 -15 20 34 44 30 16 52 22 56 16 3 -6 -2 -10 -12 -10
-10 0 -29 -9 -43 -20 -19 -15 -22 -22 -12 -28 9 -6 12 -26 10 -58 l-3 -49 -32
55 c-18 30 -43 68 -56 84 l-24 29 -39 -26 c-57 -40 -66 -33 -9 7 26 19 53 32
59 30 6 -2 27 -30 46 -61z m-512 -35 c3 -22 -1 -28 -17 -28 -32 0 -51 11 -51
29 0 25 10 32 40 29 19 -2 26 -10 28 -30z m382 2 c0 -5 -7 -10 -15 -10 -8 0
-15 5 -15 10 0 6 7 10 15 10 8 0 15 -4 15 -10z m-292 -18 c2 -7 -3 -12 -12
-12 -9 0 -16 7 -16 16 0 17 22 14 28 -4z"/>
<path d="M3882 264 c2 -11 11 -20 22 -22 13 -3 17 1 14 14 -2 11 -11 20 -22
22 -13 3 -17 -1 -14 -14z m23 -4 c3 -5 1 -10 -4 -10 -6 0 -11 5 -11 10 0 6 2
10 4 10 3 0 8 -4 11 -10z"/>
<path d="M56 484 c-8 -20 -8 -408 0 -428 6 -14 132 -16 1334 -16 1202 0 1328
2 1334 16 8 20 8 408 0 428 -6 14 -132 16 -1334 16 -1202 0 -1328 -2 -1334
-16z m2652 -203 c2 -134 -1 -198 -9 -207 -16 -19 -2598 -21 -2617 -2 -13 13
-18 389 -5 401 3 4 596 6 1317 5 l1311 -3 3 -194z"/>
<path d="M112 438 c-17 -17 -17 -319 0 -336 17 -17 2539 -17 2556 0 17 17 17
319 0 336 -17 17 -2539 17 -2556 0z m1772 -69 c14 -11 26 -29 26 -40 0 -15 -7
-19 -34 -19 -19 0 -38 5 -41 10 -8 12 -45 13 -45 1 0 -5 20 -14 45 -20 82 -21
109 -77 60 -126 -20 -21 -34 -25 -80 -25 -46 0 -60 4 -80 25 -14 13 -25 31
-25 40 0 20 53 20 85 -1 23 -15 45 -12 45 5 0 5 -20 14 -45 20 -94 24 -115 98
-40 139 34 19 100 14 129 -9z m-1464 -19 c0 -28 -3 -30 -35 -30 l-35 0 0 -85
0 -85 -40 0 -40 0 0 85 0 85 -30 0 c-27 0 -30 3 -30 30 l0 30 105 0 105 0 0
-30z m208 14 c24 -17 29 -53 11 -86 -8 -14 -8 -23 0 -31 6 -6 11 -29 11 -51 0
-21 3 -36 7 -32 4 4 24 53 43 109 l36 102 44 0 45 0 37 -105 c21 -58 38 -108
38 -112 0 -5 -18 -8 -40 -8 -29 0 -40 4 -40 15 0 11 -11 15 -40 15 -29 0 -40
-4 -40 -15 0 -13 -14 -15 -82 -13 l-83 3 -5 35 c-4 27 -10 36 -27 38 -21 3
-23 -1 -23 -37 l0 -41 -40 0 -40 0 0 115 0 115 83 0 c59 0 89 -5 105 -16z
m362 -99 l0 -115 -40 0 -40 0 0 115 0 115 40 0 40 0 0 -115z m90 30 l0 -85 50
0 c49 0 50 -1 50 -30 l0 -30 -90 0 -90 0 0 115 0 115 40 0 40 0 0 -85z m236
23 l18 -63 18 63 19 62 49 0 50 0 0 -115 0 -115 -40 0 -40 0 -1 43 -1 42 -12
-40 c-11 -35 -17 -40 -42 -40 -26 0 -30 5 -46 55 l-17 55 0 -57 -1 -58 -35 0
-35 0 0 115 0 115 49 0 50 0 17 -62z m365 -48 c21 -58 38 -108 38 -112 2 -15
-77 -8 -83 7 -8 21 -76 21 -76 0 0 -11 -11 -15 -40 -15 -22 0 -40 3 -40 6 0 4
17 56 38 116 l37 109 44 -3 44 -3 38 -105z m449 80 c0 -28 -3 -30 -35 -30
l-35 0 0 -85 0 -85 -35 0 -35 0 0 85 0 85 -35 0 c-32 0 -35 2 -35 30 l0 30
105 0 105 0 0 -30z m200 6 c0 -23 -4 -25 -52 -28 -70 -4 -78 -28 -9 -28 50 0
51 -1 51 -30 0 -29 -1 -30 -50 -30 -38 0 -50 -4 -50 -15 0 -12 13 -15 60 -15
l60 0 0 -30 0 -30 -100 0 -100 0 0 115 0 115 95 0 c94 0 95 0 95 -24z m212 7
c20 -18 24 -73 6 -91 -9 -9 -9 -15 0 -24 7 -7 12 -26 12 -42 0 -40 9 -51 40
-51 18 0 25 -5 25 -20 0 -29 -45 -34 -52 -6 -4 17 -13 21 -44 21 -35 0 -39 3
-39 24 0 40 -11 56 -36 56 -21 0 -24 -4 -24 -40 l0 -40 -40 0 -40 0 0 115 0
115 87 0 c66 0 91 -4 105 -17z"/>
<path d="M520 310 c0 -15 7 -20 25 -20 28 0 34 24 9 34 -26 10 -34 7 -34 -14z"/>
<path d="M770 271 c0 -5 -3 -16 -6 -25 -4 -12 0 -16 16 -16 16 0 20 4 16 16
-3 9 -6 20 -6 25 0 5 -4 9 -10 9 -5 0 -10 -4 -10 -9z"/>
<path d="M1590 276 c0 -8 -3 -21 -6 -30 -4 -11 0 -16 14 -16 15 0 18 5 14 25
-5 28 -22 44 -22 21z"/>
<path d="M2430 310 c0 -15 7 -20 24 -20 33 0 42 16 17 29 -29 16 -41 13 -41
-9z"/>
<path d="M2988 479 c-21 -11 -38 -27 -38 -35 0 -29 70 -150 124 -215 61 -75
110 -105 151 -95 33 8 141 114 173 169 24 41 23 41 -29 27 -30 -8 -38 -16 -43
-41 -7 -36 -66 -99 -93 -99 -52 0 -153 129 -187 241 l-21 67 -37 -19z"/>
<path d="M2920 445 c0 -12 65 -133 93 -175 41 -59 105 -129 131 -142 12 -5 0
10 -25 34 -64 61 -123 142 -159 221 -29 60 -40 78 -40 62z"/>
<path d="M3363 351 c-29 -8 -53 -19 -53 -23 0 -4 26 2 57 13 37 13 59 16 63 9
4 -6 14 -8 24 -4 14 5 15 9 4 15 -17 11 -33 10 -95 -10z"/>
<path d="M3722 336 c-22 -20 -42 -36 -45 -36 -3 0 -10 14 -16 30 -12 37 -20
37 -77 4 l-44 -26 -21 26 c-11 14 -24 26 -29 26 -4 0 4 -13 18 -30 15 -16 30
-30 34 -30 5 0 27 12 49 27 40 26 42 27 55 8 8 -10 14 -27 14 -37 0 -25 7 -23
51 17 53 48 75 46 89 -6 l11 -41 27 24 c15 14 38 32 52 41 13 10 19 17 13 17
-6 0 -25 -11 -41 -25 -38 -32 -44 -31 -62 7 -8 18 -20 34 -27 36 -6 2 -29 -13
-51 -32z"/>
<path d="M4666 295 c4 -8 11 -15 16 -15 6 0 5 6 -2 15 -7 8 -14 15 -16 15 -2
0 -1 -7 2 -15z"/>
<path d="M3357 229 c-51 -65 -95 -98 -148 -109 l-44 -9 43 3 c26 3 56 14 76
30 l33 25 23 -31 c20 -28 26 -30 67 -25 24 2 52 12 63 22 17 16 19 15 35 -9
13 -19 21 -23 34 -17 9 5 30 6 47 4 29 -5 34 -1 58 40 14 24 35 52 46 62 21
19 21 18 34 -30 3 -11 3 -3 1 19 -2 21 -6 41 -9 44 -9 8 -33 -17 -71 -74 -34
-52 -59 -67 -67 -43 -3 9 -10 8 -28 -1 -20 -11 -25 -10 -36 5 -7 10 -15 23
-17 29 -2 6 -18 -1 -36 -17 -53 -44 -121 -32 -121 22 0 30 17 50 68 75 18 9
30 21 27 26 -13 22 -42 7 -78 -41z"/>
<path d="M4575 202 c-5 -42 -11 -50 -45 -70 -46 -26 -50 -27 -50 -7 0 13 -4
14 -22 4 -18 -10 -24 -8 -35 7 -7 10 -13 22 -13 27 0 5 -14 -3 -31 -17 -35
-30 -83 -34 -110 -10 -17 15 -21 15 -54 -6 l-35 -22 0 49 0 48 -46 -47 c-49
-51 -64 -57 -84 -33 -12 14 -16 13 -39 -9 -14 -13 -42 -33 -61 -45 -19 -11
-31 -21 -27 -21 15 0 52 22 80 48 21 20 30 23 39 14 20 -20 53 -13 83 18 33
34 45 31 45 -11 l0 -31 36 23 c30 18 40 20 55 11 28 -18 80 -14 115 7 l32 19
11 -25 c9 -20 15 -23 23 -15 17 17 28 15 28 -4 0 -19 13 -15 68 20 25 15 42
34 44 48 3 21 5 19 25 -15 24 -39 57 -58 101 -56 23 1 22 2 -8 8 -62 13 -79
28 -95 86 -9 30 -18 55 -20 55 -2 0 -6 -21 -10 -48z"/>
<path d="M4707 244 c-4 -4 -7 -20 -7 -35 0 -36 32 -56 51 -33 11 13 11 20 -1
42 -16 27 -32 37 -43 26z m31 -38 c3 -12 -1 -17 -10 -14 -7 3 -15 13 -16 22
-3 12 1 17 10 14 7 -3 15 -13 16 -22z"/>
<path d="M3425 200 c3 -5 15 -10 26 -10 11 0 17 5 14 10 -3 6 -15 10 -26 10
-11 0 -17 -4 -14 -10z"/>
<path d="M4340 200 c0 -6 7 -10 15 -10 8 0 15 2 15 4 0 2 -7 6 -15 10 -8 3
-15 1 -15 -4z"/>
<path d="M3790 145 c-42 -31 -47 -31 -53 -2 -3 16 -5 13 -6 -10 0 -18 1 -33 4
-33 3 0 24 12 46 26 22 14 50 29 62 34 21 8 21 9 2 9 -11 0 -36 -11 -55 -24z"/>
<path d="M3878 153 c6 -2 18 -2 25 0 6 3 1 5 -13 5 -14 0 -19 -2 -12 -5z"/>
<path d="M3926 137 c8 -21 -24 -29 -35 -9 -9 15 -10 15 -11 1 0 -22 27 -32 51
-18 21 11 21 30 1 37 -7 2 -10 -2 -6 -11z"/>
<path d="M3799 51 c14 -13 36 -21 55 -20 l31 1 -30 7 c-16 4 -41 13 -55 20
l-25 12 24 -20z"/>
</g>
</svg>
