<svg xmlns="http://www.w3.org/2000/svg" height="800" width="1200" viewBox="-24.11175 -15.011575 208.9685 90.06945"><defs><clipPath id="a" clipPathUnits="userSpaceOnUse"><path d="M0 0h612v1188H0z"/></clipPath></defs><path d="M16.68 52.3521c0 1.055-.3437 1.8275-1.0312 2.3188-.6875.4912-1.5575.7375-2.61.7375H4.1763v4.6375H0v-14.255h13.0388c1.1712 0 2.0712.2637 2.6987.79.6275.5275.9425 1.2825.9425 2.2662zm-4.1762-2.5862c0-.2988-.0688-.5238-.2038-.6725-.1362-.15-.3987-.225-.79-.225H4.1763v3.4625H11.51c.3563 0 .6113-.0675.7638-.2038.1537-.135.23-.3312.23-.5875zm24.2512 2.0304c0 1.055-.3438 1.8275-1.0313 2.3187-.6875.4925-1.5575.7375-2.61.7375h-1.1725l6.6725 5.1938H33.215l-6.7225-5.1938h-2.2413v5.1938H20.075V45.79h13.0387c1.1713 0 2.0713.265 2.6988.7913.6275.5275.9425 1.2825.9425 2.2662zm-4.1763-2.0513c0-.3-.0687-.52-.2037-.6625-.1363-.1425-.3988-.2137-.79-.2137h-7.3338v2.9062h7.3338c.3562 0 .6112-.0712.7637-.2137.1538-.1425.23-.3413.23-.5988zm26.0087 6.9458c0 .4987-.0975.955-.2925 1.3675a3.0362 3.0362 0 01-.8275 1.0587c-.3575.2913-.7813.52-1.2738.6838-.4925.1637-1.0275.245-1.605.245h-10.11c-.5937 0-1.1375-.0813-1.63-.245-.4925-.1638-.9125-.3925-1.26-.6838a3.0768 3.0768 0 01-.815-1.0587c-.195-.4126-.2925-.8688-.2925-1.3676v-7.545c0-1.025.36-1.8412 1.0825-2.4462.7213-.6062 1.6925-.9087 2.915-.9087h10.11c.5775 0 1.1125.0787 1.605.235.4925.1575.9163.3812 1.2738.6737.3562.2913.6312.645.8275 1.0575.195.4138.2925.8763.2925 1.3888zm-4.1763-7.8225h-9.7537v8.1h9.7537zm17.5206.0001v11.1775h-4.1762V48.8684h-7.0038v-3.0775h18.1838v3.0775zm9.6186 11.1776V45.791h15.6362v3.0775h-11.46v2.4575h7.5388v3.0138h-7.5388v2.6287h11.6388v3.0775z" fill="#485153"/><g clip-path="url(#a)" transform="matrix(1.25 0 0 -1.25 -560.6779 1455.05)"><path d="M542.0037 1122.603c0-.844-.275-1.462-.825-1.855-.55-.394-1.246-.59-2.088-.59h-.938l5.338-4.155h-4.319l-5.378 4.155h-1.793v-4.155h-3.341v11.405h10.431c.937 0 1.657-.212 2.159-.633.502-.422.754-1.026.754-1.813zm-3.341 1.641c0 .24-.055.416-.163.53-.109.114-.319.171-.632.171h-5.867v-2.325h5.867c.285 0 .489.057.611.171.123.114.184.273.184.479zm19.4133-1.641c0-.844-.275-1.462-.825-1.855-.55-.394-1.246-.59-2.088-.59h-.938l5.338-4.155h-4.319l-5.378 4.155h-1.793v-4.155h-3.341v11.405h10.431c.937 0 1.657-.212 2.159-.633.502-.422.754-1.026.754-1.813zm-3.341 1.641c0 .24-.055.416-.163.53-.109.114-.319.171-.632.171h-5.867v-2.325h5.867c.285 0 .489.057.612.171.122.114.183.273.183.479z" fill="#485153"/></g><path d="M156.1863 60.046l-1.4775-2.4575h-9.2438l-1.4775 2.4575h-4.4562l8.8375-14.255h3.6925l8.6837 14.255zm-6.1113-10.7075l-3.1075 5.3h6.1887z" fill="#485153"/><path d="M78.9427 0l-17.225 9.7975v19.5938l4 2.275V12.0724l13.225-7.52 13.2225 7.52V27.115l-13.2225 7.5213-5.2175-2.9688v-4.5537l5.2175 2.9675 9.22-5.2438V14.35l-9.22-5.2437-9.22 5.2437v19.595l4.0025 2.2738 5.2175 2.9687 17.225-9.7962V9.7975zm-5.2175 16.6262l5.2175-2.9687 5.2175 2.9687v5.9363L78.9427 25.53l-5.2175-2.9675z" fill="#57ac35"/><path d="M78.9767 39.2646l17.225-9.7975V9.8734l-4-2.275V27.192l-13.225 7.52-13.2225-7.52V12.1496l13.2225-7.5212 5.2175 2.9687v4.5538l-5.2175-2.9675-9.22 5.2437v10.4875l9.22 5.2438 9.22-5.2438V5.3196L84.1942 3.046 78.9767.077l-17.225 9.7963V29.467zm5.2175-16.625l-5.2175 2.9675-5.2175-2.9675v-5.9375l5.2175-2.9675 5.2175 2.9675zM96.879 9.8199v.175h.3712v.9787h.205V9.995h.3713V9.82zm2.0104 0l-.315.9037h-.0038l-.3225-.9037h-.2887v1.1537h.195v-.8887h.0037l.3238.8887h.17l.3237-.8887h.0038v.8887h.195V9.82z" fill="#57ac35"/></svg>