<?xml version="1.0" encoding="UTF-8" standalone="no"?>
<svg
   xmlns:dc="http://purl.org/dc/elements/1.1/"
   xmlns:cc="http://creativecommons.org/ns#"
   xmlns:rdf="http://www.w3.org/1999/02/22-rdf-syntax-ns#"
   xmlns:svg="http://www.w3.org/2000/svg"
   xmlns="http://www.w3.org/2000/svg"
   viewBox="0 0 258.66666 258.66666"
   height="258.66666"
   width="258.66666"
   xml:space="preserve"
   id="svg2"
   version="1.1"><metadata
     id="metadata8"><rdf:RDF><cc:Work
         rdf:about=""><dc:format>image/svg+xml</dc:format><dc:type
           rdf:resource="http://purl.org/dc/dcmitype/StillImage" /></cc:Work></rdf:RDF></metadata><defs
     id="defs6" /><g
     transform="matrix(1.3333333,0,0,-1.3333333,0,258.66667)"
     id="g10"><g
       transform="scale(0.1)"
       id="g12"><path
         id="path14"
         style="fill:#ffffff;fill-opacity:1;fill-rule:evenodd;stroke:none"
         d="M 6.21875,1933.78 H 1933.78 V 6.21875 H 6.21875 V 1933.78" /><path
         id="path16"
         style="fill:#ffffff;fill-opacity:1;fill-rule:evenodd;stroke:none"
         d="M 34.5664,804.082 H 1739.25 l 117.12,342.288 H 34.5664 V 804.082" /><path
         id="path18"
         style="fill:#231f20;fill-opacity:1;fill-rule:evenodd;stroke:none"
         d="m 1819.55,1560.29 18.58,-2.1 32.25,-53.63 9.47,-0.36 c 2.45,-11.56 15.77,-12.97 25.58,-19.27 -1.4,-19.99 -18.92,-34.36 -32.25,-46.27 l -10.86,1.4 -6.31,-24.54 -19.98,-22.78 -1.76,-43.82 2.81,-24.19 c 1.4,-4.2 7.71,-6.31 13.32,-6.31 2.46,-2.1 6.66,-4.55 8.77,-8.76 1.4,-2.1 4.2,0 6.65,-1.05 5.26,2.8 0,8.76 0,14.02 1.06,0 2.11,0 3.51,1.05 4.21,-1.05 4.21,-5.26 6.31,-9.81 -2.46,-7.72 -14.02,-12.97 -22.78,-14.03 l -8.77,-10.16 -8.06,2.46 c -1.76,-23.14 -35.05,-24.54 -45.92,-42.07 -11.92,-8.41 -19.63,-17.18 -26.29,-30.14 2.1,-11.22 19.63,-21.04 13.32,-36.46 -4.21,-13.32 -1.4,-24.89 -8.76,-37.16 -1.4,0 -4.56,1.06 -5.61,3.51 -2.11,1.05 -5.61,0 -7.71,1.05 l -13.32,6.31 c 0,0 -2.1,-2.1 -2.81,-3.51 l 5.26,-8.76 5.26,3.16 -1642.938,-0.7 c -6.305,24.18 -14.3714,51.52 5.609,75.36 36.106,69.41 49.426,145.82 35.051,217.33 1.055,1.75 2.109,1.75 4.558,1.75 10.52,-18.23 39.262,-7.71 50.129,-26.29 0,-10.52 -2.453,-22.78 -7.714,-29.09 0,-2.46 2.457,-2.46 4.21,-4.56 5.958,1.05 13.317,4.56 13.317,12.97 5.609,18.93 5.258,35.05 7.711,52.58 -1.047,0.35 -3.504,3.15 -5.254,4.56 -1.406,4.2 -2.457,7.36 0,11.91 268.152,-45.91 535.258,-60.29 804.811,-29.79 l 5.61,4.91 1.05,16.12 c 1.06,1.05 3.51,0 5.26,1.05 l 10.17,-22.08 37.15,-9.81 6.66,4.55 23.14,-10.86 c 0.7,0 3.15,1.04 5.26,-1.06 l 81.32,2.1 c -14.72,-18.57 -36.45,-32.59 -48.73,-58.88 -5.25,-4.56 -11.56,-4.56 -15.07,-10.17 0,-5.26 6.31,-5.26 10.87,-3.51 10.87,3.51 17.88,8.77 27.69,13.68 l 1.75,-6.66 c 1.06,-2.46 2.46,-3.51 5.97,-5.61 25.93,2.1 44.86,19.63 57.83,38.2 4.56,8.77 8.76,17.88 19.63,17.88 l -9.82,-22.43 c 0,-1.05 0,-1.75 0,-3.86 l 34.01,-10.16 c 25.24,-9.82 48.37,22.79 73.61,23.13 l 5.25,-8.76 26.3,-3.16 c 1.05,-1.05 0,-3.5 1.05,-5.6 l 6.31,-5.61 c -5.26,-4.56 -14.02,-3.16 -21.73,-3.51 -4.21,-3.85 -10.87,-5.26 -16.13,-3.85 l -35.05,-16.48 c 0.7,-1.4 -1.05,-3.5 -1.41,-5.96 h -16.12 c -12.27,-15.07 -14.72,-36.1 -19.98,-55.38 l 19.98,27.34 -7.01,-86.93 c 1.05,-17.53 12.62,-25.94 9.12,-44.17 2.44,-8.76 10.86,-14.37 18.57,-14.37 14.02,0 18.58,10.87 24.19,22.08 7.71,40.31 -23.14,63.8 -9.11,104.81 -0.71,1.76 0,3.16 -1.76,5.26 5.26,1.05 -4.91,2.45 1.05,4.56 l 12.97,15.42 v -10.17 c 2.11,-4.55 7.36,0 11.92,-2.1 l 2.1,37.16 9.82,9.81 c 18.58,0 41.01,-4.56 50.83,-23.83 6.31,-19.63 7.36,-43.12 -8.07,-59.24 0,0 1.05,-2.11 2.11,-4.21 0.35,-0.35 2.45,0 4.55,-1.4 1.41,0 3.16,1.05 4.56,1.4 3.16,2.1 6.31,7.36 6.31,12.62 2.1,5.96 8.76,10.16 15.77,9.11 3.86,-0.34 3.86,-4.56 8.77,-5.6 8.76,-20.69 24.88,-37.16 16.12,-58.89 -7.36,-13.32 -16.47,-24.54 -18.58,-37.51 1.06,-3.51 2.46,-5.26 6.66,-7.36 l 43.82,5.26 c 23.84,24.88 52.58,44.86 75.71,70.1 4.21,6.32 2.81,12.27 5.26,17.53 -1.05,4.55 -6.66,4.55 -11.22,7.36 -2.1,2.45 -2.1,4.91 -2.1,8.77 23.14,14.71 65.91,0 80.97,32.24 l -3.85,31.55 c 10.52,38.56 46.62,62.39 86.23,71.16 22.78,2.45 39.26,15.42 49.42,30.49 3.16,2.46 5.61,5.61 7.37,7.02 0,11.56 5.61,24.88 1.05,36.8 -3.86,19.98 -7.36,40.66 5.96,58.19 2.8,1.4 6.3,1.4 9.46,0 4.56,-1.06 7.01,4.2 9.81,7.71" /><path
         id="path20"
         style="fill:#231f20;fill-opacity:1;fill-rule:evenodd;stroke:none"
         d="m 1833.57,1129.57 -10.51,-30.5 H 51.1328 v 30.5 H 1833.57" /><path
         id="path22"
         style="fill:#231f20;fill-opacity:1;fill-rule:evenodd;stroke:none"
         d="m 51.1328,1088.55 h 36.1055 v -27.34 H 51.1328 v 27.34" /><path
         id="path24"
         style="fill:#231f20;fill-opacity:1;fill-rule:evenodd;stroke:none"
         d="m 173.465,1088.55 h 92.89 l -18.578,-27.34 h -76.414 l 2.102,27.34" /><path
         id="path26"
         style="fill:#231f20;fill-opacity:1;fill-rule:evenodd;stroke:none"
         d="m 356.441,1088.55 h 93.59 l -21.027,-27.34 h -74.313 l 1.75,27.34" /><path
         id="path28"
         style="fill:#231f20;fill-opacity:1;fill-rule:evenodd;stroke:none"
         d="m 540.121,1088.55 h 43.113 l -22.082,-27.34 h -43.113 l 22.082,27.34" /><path
         id="path30"
         style="fill:#231f20;fill-opacity:1;fill-rule:evenodd;stroke:none"
         d="m 770.77,1088.55 -8.766,-27.34 H 662.457 L 660,1088.55 h 110.77" /><path
         id="path32"
         style="fill:#231f20;fill-opacity:1;fill-rule:evenodd;stroke:none"
         d="m 955.848,1088.55 h 159.842 l -22.08,-27.34 H 979.336 c -2.109,12.62 -11.57,21.04 -23.488,27.34" /><path
         id="path34"
         style="fill:#231f20;fill-opacity:1;fill-rule:evenodd;stroke:none"
         d="m 1341.43,1089.02 c -21.38,-4.91 -35.75,-13.67 -46.27,-27.35 h -99.9 l -3.5,27.35 h 149.67" /><path
         id="path36"
         style="fill:#231f20;fill-opacity:1;fill-rule:evenodd;stroke:none"
         d="m 1548.66,1088.8 -8.06,-27.34 h -47.67 c -5.26,13.32 -10.52,19.98 -24.54,27.34 h 80.27" /><path
         id="path38"
         style="fill:#231f20;fill-opacity:1;fill-rule:evenodd;stroke:none"
         d="m 1711.75,1088.48 -9.81,-27.69 -83.08,0.34 9.12,27.35 h 83.77" /><path
         id="path40"
         style="fill:#231f20;fill-opacity:1;fill-rule:evenodd;stroke:none"
         d="m 1791.77,1088.8 h 28.04 l -9.11,-27.34 H 1783 l 8.77,27.34" /><path
         id="path42"
         style="fill:#231f20;fill-opacity:1;fill-rule:evenodd;stroke:none"
         d="m 51.1328,1050 h 36.1055 v -27.34 H 51.1328 V 1050" /><path
         id="path44"
         style="fill:#231f20;fill-opacity:1;fill-rule:evenodd;stroke:none"
         d="m 239.363,1050.35 -19.625,-28.04 h -52.23 l 3.152,28.04 h 68.703" /><path
         id="path46"
         style="fill:#231f20;fill-opacity:1;fill-rule:evenodd;stroke:none"
         d="m 353.637,1050.35 h 67.656 l -21.035,-28.04 h -48.02 l 1.399,28.04" /><path
         id="path48"
         style="fill:#231f20;fill-opacity:1;fill-rule:evenodd;stroke:none"
         d="m 509.973,1050.35 h 43.468 l -22.785,-28.39 h -43.117 l 22.434,28.39" /><path
         id="path50"
         style="fill:#231f20;fill-opacity:1;fill-rule:evenodd;stroke:none"
         d="m 1386.97,1055.5 c 13.33,0 28.4,-4.55 34.01,-17.52 h 72.56 c 1.4,5.25 1.4,7.7 1.4,12.26 h 40.66 l -9.47,-28.04 h -161.24 c -26.99,17.88 0.35,33.65 22.08,33.3" /><path
         id="path52"
         style="fill:#231f20;fill-opacity:1;fill-rule:evenodd;stroke:none"
         d="M 663.855,1050.35 H 758.5 l -9.465,-28.04 h -82.726 l -2.454,28.04" /><path
         id="path54"
         style="fill:#231f20;fill-opacity:1;fill-rule:evenodd;stroke:none"
         d="m 899.059,1050.39 c 8.765,-3.16 10.168,-13.67 7.367,-22.09 -1.403,-4.2 -3.508,-4.2 -7.012,-6.3 H 826.5 l 8.414,28.39 h 64.145" /><path
         id="path56"
         style="fill:#231f20;fill-opacity:1;fill-rule:evenodd;stroke:none"
         d="m 1084.49,1050.35 -21.73,-28.39 h -88.682 c 5.258,9.11 7.36,18.22 7.707,28.04 l 102.705,0.35" /><path
         id="path58"
         style="fill:#231f20;fill-opacity:1;fill-rule:evenodd;stroke:none"
         d="m 1196.6,1050.52 h 88.33 c -7.72,-7.71 -13.67,-17.52 -14.37,-28.04 h -70.81 l -3.15,28.04" /><path
         id="path60"
         style="fill:#231f20;fill-opacity:1;fill-rule:evenodd;stroke:none"
         d="m 1615.94,1050.4 h 82.72 l -9.46,-28.04 h -83.43 l 10.17,28.04" /><path
         id="path62"
         style="fill:#231f20;fill-opacity:1;fill-rule:evenodd;stroke:none"
         d="m 1779.98,1050.31 h 26.65 l -8.77,-28.04 h -27.69 l 9.81,28.04" /><path
         id="path64"
         style="fill:#231f20;fill-opacity:1;fill-rule:evenodd;stroke:none"
         d="m 595.152,1019.85 2.805,-37.858 h -31.195 z" /><path
         id="path66"
         style="fill:#231f20;fill-opacity:1;fill-rule:evenodd;stroke:none"
         d="m 279.68,1017.4 -3.512,-35.052 h -21.73 z" /><path
         id="path68"
         style="fill:#231f20;fill-opacity:1;fill-rule:evenodd;stroke:none"
         d="m 1129.36,1018.45 2.1,-36.458 h -29.44 z" /><path
         id="path70"
         style="fill:#231f20;fill-opacity:1;fill-rule:evenodd;stroke:none"
         d="M 51.1328,1010.74 H 87.5859 V 982.348 H 51.1328 v 28.392" /><path
         id="path72"
         style="fill:#231f20;fill-opacity:1;fill-rule:evenodd;stroke:none"
         d="m 166.453,1010.74 h 44.52 l -19.981,-28.748 h -26.289 l 1.75,28.748" /><path
         id="path74"
         style="fill:#231f20;fill-opacity:1;fill-rule:evenodd;stroke:none"
         d="m 351.184,1010.74 h 40.312 L 369.41,981.992 h -19.629 l 1.403,28.748" /><path
         id="path76"
         style="fill:#231f20;fill-opacity:1;fill-rule:evenodd;stroke:none"
         d="m 522.594,1010.74 -23.133,-28.748 h -43.82 l 22.082,28.748 h 44.871" /><path
         id="path78"
         style="fill:#231f20;fill-opacity:1;fill-rule:evenodd;stroke:none"
         d="m 667.363,1010.74 h 78.168 l -9.465,-28.748 H 670.52 l -3.157,28.748" /><path
         id="path80"
         style="fill:#231f20;fill-opacity:1;fill-rule:evenodd;stroke:none"
         d="m 822.555,1011.04 h 67.648 c -16.121,-7.01 -44.16,-4.56 -68,-5.26 -1.055,1.4 0.352,2.45 0.352,5.26" /><path
         id="path82"
         style="fill:#231f20;fill-opacity:1;fill-rule:evenodd;stroke:none"
         d="m 968.113,1010.74 h 85.537 l -23.49,-28.392 h -80.621 c -1.051,2.449 -4.207,7.359 -8.062,9.113 12.621,7.359 18.929,10.519 26.636,19.279" /><path
         id="path84"
         style="fill:#231f20;fill-opacity:1;fill-rule:evenodd;stroke:none"
         d="m 1201.67,1010.75 h 70.1 c 2.8,-15.066 7.71,-20.68 15.43,-28.742 h -82.73 l -2.8,28.742" /><path
         id="path86"
         style="fill:#231f20;fill-opacity:1;fill-rule:evenodd;stroke:none"
         d="m 1523.05,1010.73 -9.82,-28.746 h -49.42 c -16.13,14.371 -35.4,25.236 -57.14,28.746 h 116.38" /><path
         id="path88"
         style="fill:#231f20;fill-opacity:1;fill-rule:evenodd;stroke:none"
         d="m 1601.92,1010.98 h 82.72 l -2.45,-9.11 h -83.08 l 2.81,9.11" /><path
         id="path90"
         style="fill:#231f20;fill-opacity:1;fill-rule:evenodd;stroke:none"
         d="m 1766.32,1010.61 h 26.98 l -9.11,-28.747 h -27.34 l 9.47,28.747" /><path
         id="path92"
         style="fill:#231f20;fill-opacity:1;fill-rule:evenodd;stroke:none"
         d="M 51.1328,970.078 H 87.2383 V 942.035 H 51.1328 v 28.043" /><path
         id="path94"
         style="fill:#231f20;fill-opacity:1;fill-rule:evenodd;stroke:none"
         d="m 181.879,970.078 -20.684,-29.094 2.457,29.094 z" /><path
         id="path96"
         style="fill:#231f20;fill-opacity:1;fill-rule:evenodd;stroke:none"
         d="m 246.023,970.078 h 29.098 l -3.156,-28.394 h -46.27 l 20.328,28.394" /><path
         id="path98"
         style="fill:#231f20;fill-opacity:1;fill-rule:evenodd;stroke:none"
         d="m 348.379,969.727 h 11.918 l -12.27,-16.125 z" /><path
         id="path100"
         style="fill:#231f20;fill-opacity:1;fill-rule:evenodd;stroke:none"
         d="m 445.828,970.078 h 44.867 L 467.91,941.684 h -44.519 l 22.437,28.394" /><path
         id="path102"
         style="fill:#231f20;fill-opacity:1;fill-rule:evenodd;stroke:none"
         d="m 557.648,970.078 h 41.711 l 0.704,-15.777 H 546.43 l 11.218,15.777" /><path
         id="path104"
         style="fill:#231f20;fill-opacity:1;fill-rule:evenodd;stroke:none"
         d="m 731.863,970.078 -8.765,-28.394 h -49.075 l -2.453,28.394 h 60.293" /><path
         id="path106"
         style="fill:#231f20;fill-opacity:1;fill-rule:evenodd;stroke:none"
         d="m 955.5,970.078 h 65.55 l -23.487,-28.394 h -36.458 c -0.347,9.816 -1.05,18.226 -5.605,28.394" /><path
         id="path108"
         style="fill:#231f20;fill-opacity:1;fill-rule:evenodd;stroke:none"
         d="m 1093.65,970.121 h 38.21 l 1.05,-16.828 h -52.23 l 12.97,16.828" /><path
         id="path110"
         style="fill:#231f20;fill-opacity:1;fill-rule:evenodd;stroke:none"
         d="m 1205.61,970.023 h 98.5 c 24.54,-11.566 46.98,-21.035 75.72,-28.39 h -170.71 l -3.51,28.39" /><path
         id="path112"
         style="fill:#231f20;fill-opacity:1;fill-rule:evenodd;stroke:none"
         d="m 1509.4,969.996 -9.46,-28.039 h -26.29 c 1.05,9.813 0.35,19.277 -3.86,28.039 h 39.61" /><path
         id="path114"
         style="fill:#231f20;fill-opacity:1;fill-rule:evenodd;stroke:none"
         d="m 1752.13,970.348 h 27.69 l -9.81,-28.391 h -26.99 l 9.11,28.391" /><path
         id="path116"
         style="fill:#231f20;fill-opacity:1;fill-rule:evenodd;stroke:none"
         d="m 808.977,964.859 c 58.886,-2.105 88.336,5.61 79.921,-23.136 h -87.632 l 7.711,23.136" /><path
         id="path118"
         style="fill:#231f20;fill-opacity:1;fill-rule:evenodd;stroke:none"
         d="m 1666.02,953.266 -3.85,-11.567 h -83.08 l 3.86,11.567 h 83.07" /><path
         id="path120"
         style="fill:#231f20;fill-opacity:1;fill-rule:evenodd;stroke:none"
         d="M 51.1328,931.871 H 87.2383 V 903.477 H 51.1328 v 28.394" /><path
         id="path122"
         style="fill:#231f20;fill-opacity:1;fill-rule:evenodd;stroke:none"
         d="m 271.613,931.871 -3.152,-28.394 h -70.106 l 19.981,28.394 h 53.277" /><path
         id="path124"
         style="fill:#231f20;fill-opacity:1;fill-rule:evenodd;stroke:none"
         d="m 415.684,931.871 h 45.218 l -22.437,-28.047 h -44.867 l 22.086,28.047" /><path
         id="path126"
         style="fill:#231f20;fill-opacity:1;fill-rule:evenodd;stroke:none"
         d="m 674.375,931.871 h 45.566 l -9.464,-28.394 H 678.23 l -3.855,28.394" /><path
         id="path128"
         style="fill:#231f20;fill-opacity:1;fill-rule:evenodd;stroke:none"
         d="m 810.188,932.516 73.964,-0.348 c -3.855,-14.023 -22.086,-25.242 -38.207,-28.746 l -56.785,0.348 8.762,28.398 12.266,0.348" /><path
         id="path130"
         style="fill:#231f20;fill-opacity:1;fill-rule:evenodd;stroke:none"
         d="m 960.758,931.871 h 29.445 l -23.137,-28.394 h -18.578 c 8.414,10.164 11.215,17.527 12.27,28.394" /><path
         id="path132"
         style="fill:#231f20;fill-opacity:1;fill-rule:evenodd;stroke:none"
         d="m 1210.88,932.328 h 16.82 l 9.46,-28.39 h -24.18 l -2.46,27.691 0.36,0.699" /><path
         id="path134"
         style="fill:#231f20;fill-opacity:1;fill-rule:evenodd;stroke:none"
         d="m 1383.55,929.363 c -9.11,-33.652 -71.51,-28.394 -71.16,-0.351 l 71.16,0.351" /><path
         id="path136"
         style="fill:#231f20;fill-opacity:1;fill-rule:evenodd;stroke:none"
         d="m 1470.49,931.949 h 25.6 l -8.77,-28.39 h -32.95 c 7.01,8.761 12.97,18.226 16.12,28.39" /><path
         id="path138"
         style="fill:#231f20;fill-opacity:1;fill-rule:evenodd;stroke:none"
         d="m 1575.56,931.949 h 82.73 l -9.12,-28.39 h -83.42 l 9.81,28.39" /><path
         id="path140"
         style="fill:#231f20;fill-opacity:1;fill-rule:evenodd;stroke:none"
         d="m 1740.02,932.113 h 27.35 l -9.47,-28.394 h -27.69 l 9.81,28.394" /><path
         id="path142"
         style="fill:#231f20;fill-opacity:1;fill-rule:evenodd;stroke:none"
         d="m 514.531,911.891 h 89.035 l 0.7,-8.414 h -96.047 l 6.312,8.414" /><path
         id="path144"
         style="fill:#231f20;fill-opacity:1;fill-rule:evenodd;stroke:none"
         d="m 1049.77,911.551 h 85.17 l 0.7,-7.711 h -91.84 l 5.97,7.711" /><path
         id="path146"
         style="fill:#231f20;fill-opacity:1;fill-rule:evenodd;stroke:none"
         d="M 87.2383,890.855 V 863.867 H 51.1328 v 26.988 h 36.1055" /><path
         id="path148"
         style="fill:#231f20;fill-opacity:1;fill-rule:evenodd;stroke:none"
         d="m 189.242,890.855 h 78.168 l -2.453,-26.988 h -94.648 l 18.933,26.988" /><path
         id="path150"
         style="fill:#231f20;fill-opacity:1;fill-rule:evenodd;stroke:none"
         d="m 383.434,890.855 h 44.867 l -21.379,-26.988 h -44.871 l 21.383,26.988" /><path
         id="path152"
         style="fill:#231f20;fill-opacity:1;fill-rule:evenodd;stroke:none"
         d="M 498.758,890.855 H 605.32 l 1.75,-26.988 H 479.129 l 19.629,26.988" /><path
         id="path154"
         style="fill:#231f20;fill-opacity:1;fill-rule:evenodd;stroke:none"
         d="m 679.277,890.855 h 26.993 l -8.766,-26.988 h -16.121 l -2.106,26.988" /><path
         id="path156"
         style="fill:#231f20;fill-opacity:1;fill-rule:evenodd;stroke:none"
         d="m 938.676,891.207 h 18.574 l -21.73,-27.34 h -28.747 c 14.375,7.711 23.836,16.477 31.903,27.34" /><path
         id="path158"
         style="fill:#231f20;fill-opacity:1;fill-rule:evenodd;stroke:none"
         d="m 1034.02,890.855 h 102.35 l 1.75,-26.988 h -123.73 l 19.63,26.988" /><path
         id="path160"
         style="fill:#231f20;fill-opacity:1;fill-rule:evenodd;stroke:none"
         d="m 1215.34,890.871 h 25.58 c 12.62,-9.113 21.74,-22.785 38.92,-26.988 h -61.35 l -3.15,26.988" /><path
         id="path162"
         style="fill:#231f20;fill-opacity:1;fill-rule:evenodd;stroke:none"
         d="m 1444.56,890.773 h 38.2 l -9.46,-26.984 h -76.42 c 21.74,7.711 36.11,14.719 47.68,26.984" /><path
         id="path164"
         style="fill:#231f20;fill-opacity:1;fill-rule:evenodd;stroke:none"
         d="m 1561.44,891.031 h 83.08 l -8.77,-26.992 h -83.07 l 8.76,26.992" /><path
         id="path166"
         style="fill:#231f20;fill-opacity:1;fill-rule:evenodd;stroke:none"
         d="m 1725.56,891.453 27.34,-0.351 -9.11,-26.993 h -27.34 l 9.11,27.344" /><path
         id="path168"
         style="fill:#231f20;fill-opacity:1;fill-rule:evenodd;stroke:none"
         d="m 1739.64,851.25 -8.77,-27.695 H 51.1328 V 851.25 H 1739.64" /><path
         id="path170"
         style="fill:#231f20;fill-opacity:1;fill-rule:evenodd;stroke:none"
         d="M 166.453,805.328 H 1659.01 c -21.73,-11.566 -17.53,-39.613 -27.69,-61.695 -9.81,-48.02 29.45,-100.949 57.84,-131.445 17.88,-30.5 57.48,-71.508 50.48,-115.329 -5.26,-14.023 -12.97,-20.679 -22.79,-29.093 0,0 -2.45,0 -4.21,0 -11.21,28.394 -45.21,24.89 -58.18,52.582 -13.33,10.867 -22.09,21.382 -35.41,31.547 -6.31,37.156 -8.76,69.054 -51.17,83.425 -9.82,10.52 -26.3,16.121 -38.56,11.918 -10.87,-4.554 -12.97,-17.879 -23.84,-23.136 l -45.22,18.582 c -1.75,0 -2.8,4.554 -4.2,0.347 -19.63,4.207 -39.62,-6.656 -58.19,-14.718 l -6.31,5.957 c -1.4,0 -3.16,0 -5.61,0 l -10.87,-6.657 c -16.47,0 -41.71,-3.511 -50.47,-24.191 -1.05,-1.402 -1.05,-4.203 -1.05,-4.203 4.2,-5.965 12.26,-0.352 18.57,-1.406 1.05,0 3.16,-3.504 2.46,-6.305 -3.51,-2.457 -5.61,-9.82 -3.51,-14.723 4.21,-4.211 12.97,-5.258 15.43,-12.972 0,0 0,-3.157 0,-4.555 -14.38,-6.313 -18.94,12.269 -31.9,16.472 -2.11,0 -2.11,-2.804 -3.51,-4.203 v -11.922 c -6.31,-1.398 -7.36,7.364 -12.97,8.766 l -12.97,-10.867 c -17.87,-6.66 -29.45,17.523 -50.48,19.281 -4.55,0 -5.25,-4.211 -7.7,-8.765 -56.09,8.765 -107.27,-18.575 -138.82,-60.993 -35.4,-11.918 -57.48,-36.457 -60.28,-74.312 -1.06,-18.926 2.8,-35.402 4.2,-52.93 -19.98,-1.051 -47.322,8.762 -71.158,17.879 -12.969,18.574 -13.32,43.813 -34.004,55.383 -27.691,28.742 -41.715,84.828 -89.035,90.086 -10.863,-1.055 -24.883,-2.453 -29.09,-14.024 -2.457,-8.761 -4.559,-21.031 -14.723,-25.234 -21.382,-3.508 -38.91,11.914 -52.582,23.832 -2.8,44.867 -43.816,57.84 -65.547,84.129 -2.105,1.402 -3.152,3.508 -3.152,3.508 l -5.609,5.254 -62.399,-1.051 c -2.101,-0.699 -3.152,-1.754 -4.558,-4.203 V 601.32 c -81.672,-19.632 -166.496,22.782 -247.121,61.34 l -1.399,6.66 -86.234,2.805 c 0,9.816 -4.555,18.934 -7.008,29.797 -5.262,22.086 -27.34,19.629 -37.859,37.508 -0.352,2.101 -2.454,3.855 -4.555,4.203 l -65.551,31.902 -6.66,26.988 12.617,2.805" /><path
         id="path172"
         style="fill:#ffffff;fill-opacity:1;fill-rule:evenodd;stroke:none"
         d="m 618.754,796.863 h 28.199 l 18.246,-49.765 14.102,49.765 h 29.035 L 680.961,703.969 H 651.93 l -16.59,48.105 -14.93,-48.105 h -28.199 z m 71.328,-92.894 61.383,92.894 h 30.687 l 5.805,-92.894 H 757.27 l -0.832,11.609 H 727.41 l -6.637,-11.609 z m 68.016,30.687 v 32.348 l -19.075,-32.348 z m 95.386,36.492 -20.734,-67.179 h -29.863 l 21.57,67.179 h -27.375 l 6.637,25.715 h 87.09 l -7.465,-25.715 z m 48.106,25.715 h 30.691 L 901.59,703.969 h -29.86 z m 86.262,0.828 c 67.188,0 38.988,-96.211 -24.051,-96.211 -63.039,-3.316 -47.281,94.551 24.051,96.211 z m -4.977,-22.394 c -24.883,0 -43.957,-53.914 -15.758,-53.082 24.883,1.66 38.153,53.082 15.758,53.082 z m 66.355,21.566 h 28.2 l 17.42,-49.765 14.1,49.765 h 29.03 l -26.54,-92.894 h -29.86 l -16.59,48.105 -14.1,-48.105 h -29.03 z m 68.84,-92.894 61.38,92.894 h 30.69 l 5.81,-92.894 h -30.69 l -0.83,11.609 h -29.03 l -6.63,-11.609 z m 68.02,30.687 -0.83,32.348 -18.24,-32.348 z m 69.67,62.207 h 29.87 l -22.41,-71.332 h 42.31 l -6.64,-21.562 h -72.16 l 29.03,92.894" /></g></g></svg>