<?xml version="1.0" encoding="UTF-8" standalone="no"?>
<svg
   xmlns:dc="http://purl.org/dc/elements/1.1/"
   xmlns:cc="http://creativecommons.org/ns#"
   xmlns:rdf="http://www.w3.org/1999/02/22-rdf-syntax-ns#"
   xmlns:svg="http://www.w3.org/2000/svg"
   xmlns="http://www.w3.org/2000/svg"
   viewBox="0 0 480 235.70667"
   height="235.70667"
   width="480"
   xml:space="preserve"
   id="svg2"
   version="1.1"><metadata
     id="metadata8"><rdf:RDF><cc:Work
         rdf:about=""><dc:format>image/svg+xml</dc:format><dc:type
           rdf:resource="http://purl.org/dc/dcmitype/StillImage" /></cc:Work></rdf:RDF></metadata><defs
     id="defs6" /><g
     transform="matrix(1.3333333,0,0,-1.3333333,0,235.70667)"
     id="g10"><g
       transform="scale(0.1)"
       id="g12"><path
         id="path14"
         style="fill:#231f20;fill-opacity:1;fill-rule:nonzero;stroke:none"
         d="m 3595.92,1626.3 -84.99,49.45 c -3.13,1.82 -5.49,0.35 -5.13,-3.26 l 1.64,-14.99 c 0.36,-3.61 3.05,-8.44 5.91,-10.65 l 42.16,-32.29 c 2.86,-2.21 4.26,-6.86 3.12,-10.34 l -35.19,-107.72 c -1.13,-3.48 -5.04,-6.47 -8.61,-6.69 l -114.62,-6.87 c -3.66,-0.21 -8.17,-2.95 -10.08,-6.03 l -56.32,-91.52 c -1.92,-3.12 -0.69,-6.82 2.61,-8.21 l 25.54,-10.74 c 3.39,-1.43 5.22,-5.38 4.09,-8.86 l -24.33,-73.17 c -1.13,-3.5 -4.79,-5.2 -8.18,-3.74 l -67.26,28.22 c -3.39,1.41 -9.13,2.59 -12.77,2.54 h -23.03 c -3.65,-0.04 -6.17,-3 -5.57,-6.58 l 21.98,-140 c 0.62,-3.59 3.66,-8.03 6.78,-9.82 l 96.64,-54.39 c 3.23,-1.82 2.79,-3.45 -0.86,-3.66 l -84.47,-4.9 c -3.56,-0.21 -7.83,-3.08 -9.31,-6.43 l -81.69,-185.22 c -1.47,-3.325 -3.38,-8.922 -4.25,-12.489 l -88.29,-376.23 c -0.87,-3.57 0.07,-8.91 2.16,-11.93 l 17.91,-26.761 c 2.07,-3.071 0.78,-5.52 -2.87,-5.52 h -18.94 c -3.66,0 -8.26,2.449 -10.35,5.52 l -14.25,21.152 c -2,3.027 -3.04,8.41 -2.35,11.969 l 76.74,376.172 c 0.7,3.582 0,9.195 -1.74,12.386 l -37.02,72.281 c -1.75,3.262 -1.13,8.168 1.3,10.954 l 121.59,140.656 c 2.35,2.71 3.82,7.95 3.29,11.56 l -27.46,174.76 c -0.59,3.59 -4.08,6.57 -7.72,6.57 h -261.42 c -3.65,0 -6.6,-3 -6.6,-6.67 v -8.8 c 0,-3.65 -2.18,-8.65 -4.78,-11.12 L 2483,890.027 c -2.62,-2.5 -7.83,-4.519 -11.48,-4.519 h -55.7 c -3.56,0 -8.78,-2.047 -11.47,-4.543 l -28.51,-26.504 c -2.7,-2.461 -3.39,-7.063 -1.56,-10.188 l 52.58,-90.953 c 1.82,-3.129 2.34,-8.558 1.13,-11.98 l -98.64,-283.61 c -1.22,-3.441 -0.7,-8.859 1.22,-11.96 l 9.9,-17.141 c 1.82,-3.168 6.35,-5.75 9.91,-5.75 h 194.32 c 3.74,0 7.21,2.941 8,6.531 l 4.25,22 c 0.71,3.551 -0.51,8.879 -2.6,11.86 l -40.93,56 c -2.18,2.941 -1.06,6.242 2.34,7.32 l 245.25,73.89 c 3.56,1.059 4.26,4.008 1.65,6.52 l -73.26,71.691 c -2.61,2.59 -7.31,3.11 -10.44,1.239 L 2466.91,552.922 c -3.12,-1.871 -7.12,-6.051 -8.85,-9.25 l -38.17,-70.383 c -1.73,-3.187 -6.07,-5.789 -9.81,-5.789 h -15.9 c -3.74,0 -5.47,2.66 -4.08,6.012 l 83,189.207 c 1.47,3.312 5.63,6.519 9.19,7.101 l 178.95,29.051 c 3.56,0.57 7.03,3.988 7.56,7.609 l 30.33,187.454 c 0.53,3.609 -1.22,8.515 -3.91,10.953 l -37.46,33.066 c -2.69,2.367 -4.34,7.301 -3.65,10.887 l 4.26,22.012 c 0.7,3.562 3.56,4.492 6.27,2.082 l 65.6,-58.036 c 2.79,-2.41 5.47,-7.316 6.09,-10.945 l 46.24,-276.191 c 0.59,-3.571 2.51,-3.852 4.16,-0.621 l 66.49,129.289 c 1.65,3.269 5.91,5.41 9.56,4.75 l 80.13,-14.461 c 3.56,-0.649 7.72,1.543 9.11,4.883 l 25.91,61.875 c 1.47,3.347 2.09,9.07 1.47,12.644 l -54.21,323.629 c -0.62,3.58 0.68,4.14 2.94,1.3 l 119.93,-155.218 c 2.34,-2.887 2.96,-8.012 1.56,-11.336 L 3004.7,877.254 c -1.39,-3.34 -1.31,-8.848 0.17,-12.129 l 41.46,-89.902 c 1.47,-3.301 2.17,-8.942 1.47,-12.543 l -59.27,-304.731 c -0.7,-3.57 0.18,-9.078 2.09,-12.179 l 9.99,-17.141 c 1.82,-3.168 6.27,-5.75 9.91,-5.75 h 191.97 c 3.65,0 7.57,2.851 8.69,6.312 l 7.3,22.348 c 1.05,3.481 0.18,8.633 -2.08,11.52 l -72.84,90.64 c -2.34,2.821 -2.87,7.84 -1.28,11.172 l 88.54,184.969 c 1.56,3.308 3.22,8.969 3.65,12.539 l 16.95,136.555 c 0.44,3.582 2.6,8.906 4.95,11.773 l 131.67,164.583 c 2.25,2.89 4.09,8.17 3.91,11.84 l -3.56,142.17 c -0.1,3.66 -2,9.04 -4.09,12 l -11.48,15.6 c -2.17,2.95 -3.03,8.21 -1.91,11.64 l 25.04,76.48 c 1.12,3.48 0.6,8.91 -1.22,12.08 l -15.03,26.33 c -1.83,3.18 -0.61,7 2.77,8.48 l 161.83,71.52 c 3.38,1.48 7.03,5.52 8.16,8.96 l 47.2,144.26 c 1.12,3.48 -0.62,7.82 -3.74,9.65 z m -234.91,8.04 6.61,-41.77 c 0.51,-3.6 3.73,-7.68 7.13,-9.07 l 71.69,-30.12 c 3.38,-1.39 7.21,-5.34 8.51,-8.73 l 7.39,-18.82 c 1.3,-3.38 5.39,-5.99 9.05,-5.78 l 16.75,1 c 3.66,0.26 7.57,3.26 8.71,6.74 l 23.46,71.56 c 1.04,3.49 -0.44,8.13 -3.31,10.3 l -38.23,28.73 c -2.87,2.17 -5.57,6.94 -6.01,10.55 l -4.6,44.68 c -0.34,3.64 -3.31,5.17 -6.43,3.39 l -95.94,-52.93 c -3.13,-1.74 -5.3,-6.13 -4.78,-9.73 z m -6.35,40.71 c 0.53,-3.6 3.56,-5.12 6.79,-3.34 l 29.02,16.07 c 3.13,1.78 3.91,5.52 1.48,8.35 l -23.73,28.98 c -2.25,2.78 -6.26,2.95 -8.78,0.34 l -6.34,-6.56 c -2.51,-2.65 -4.17,-7.73 -3.57,-11.34 z M 3202.4,1405.89 h -87.25 c -3.66,0 -7.56,-2.81 -8.69,-6.29 l -16.17,-49.49 c -1.12,-3.48 0.97,-6.3 4.62,-6.3 h 117.22 c 3.65,0 6.09,2.95 5.57,6.56 l -7.64,48.97 c -0.62,3.6 -4.01,6.55 -7.66,6.55 z m -282.09,-62.08 h 133.49 c 3.64,0 7.55,2.82 8.69,6.3 l 24.85,75.95 c 1.14,3.48 5.04,6.3 8.7,6.3 h 102.19 c 3.65,0 9.39,-1.17 12.7,-2.56 l 32.58,-13.64 c 3.31,-1.43 8.35,-0.57 11.04,1.91 l 86.91,79.82 c 2.69,2.43 2.16,5.61 -1.23,7.04 l -96.98,40.67 c -3.3,1.4 -6.52,5.52 -7.13,9.13 l -13.55,86.47 c -0.61,3.61 1.65,5.43 5.04,4 l 96.9,-40.68 c 3.39,-1.39 5.73,0.39 5.13,4 l -15.73,99.81 c -0.52,3.61 1.04,8.69 3.56,11.35 l 21.3,22.25 c 2.51,2.61 2.07,6.25 -1.13,8.12 l -27.64,15.99 c -3.14,1.87 -8.53,2.35 -11.9,1.09 l -131.75,-47.67 c -3.49,-1.26 -9.06,-1.13 -12.43,0.31 l -38.94,16.29 c -3.31,1.39 -7.05,-0.26 -8.17,-3.74 l -5.04,-15.73 c -1.14,-3.48 0.25,-8.17 3.03,-10.43 l 19.48,-15.6 c 2.87,-2.3 3.03,-6.3 0.52,-8.86 l -12.94,-13.04 c -2.62,-2.56 -7.49,-3.52 -10.79,-2.12 l -40.06,16.81 c -3.48,1.43 -5.21,5.38 -4.09,8.86 l 17.55,53.72 c 1.14,3.47 -0.69,7.47 -4.07,8.86 l -24.94,10.47 c -3.4,1.39 -7.04,-0.26 -8.18,-3.74 l -24.15,-73.78 c -1.13,-3.48 -1.3,-9.17 -0.35,-12.73 l 15.46,-58.97 c 0.87,-3.52 0.71,-9.25 -0.44,-12.69 l -53.78,-164.69 c -1.22,-3.47 -5.13,-6.3 -8.7,-6.3 h -29.02 c -3.64,0 -7.21,-2.91 -7.82,-6.52 l -13.57,-75.52 c -0.69,-3.6 1.75,-6.51 5.4,-6.51 z M 3369.09,63.4609 c 0,29.5508 -24.07,53.6211 -53.71,53.6211 -29.45,0 -53.52,-24.0703 -53.52,-53.6211 0,-29.4609 24.07,-53.65231 53.52,-53.65231 29.64,0 53.71,24.19141 53.71,53.65231 z m 9.82,0 C 3378.91,28.4805 3350.5,0 3315.38,0 c -34.94,0 -63.36,28.4805 -63.36,63.4609 0,35 28.42,63.4801 63.36,63.4801 35.12,0 63.53,-28.4801 63.53,-63.4801 z m -52.05,0.2579 c 4.78,0 8.77,4.0429 8.77,8.871 0,4.8711 -3.99,8.7891 -8.77,8.7891 h -26.51 V 63.7188 Z m 5.38,-8.7383 14.95,-19.3985 h -12.51 l -14.07,18.3086 h -20.26 V 35.582 h -10 V 91.25 h 36.51 c 10.25,0 18.69,-8.2695 18.69,-18.6602 0,-8.3906 -5.66,-15.1679 -13.31,-17.6093 z M 3216.75,9.80859 2978.27,204.98 c -4.43,3.7 -3.9,8.879 1.13,11.551 l 213.62,112.649 c 5.12,2.718 4.6,4.929 -1.21,4.929 h -263.16 c -5.74,0 -14.69,-2.211 -19.65,-4.929 L 2711.22,224.84 c -5.22,-2.699 -9.39,-0.141 -9.39,5.601 v 93.219 c 0,5.731 -4.7,10.449 -10.43,10.449 h -178.42 c -5.73,0 -10.52,-4.718 -10.52,-10.449 V 13.6602 c 0,-5.73051 4.79,-10.46098 10.52,-10.46098 h 178.42 c 5.73,0 10.43,4.73047 10.43,10.46098 v 45.9414 c 0,5.7695 4.17,12.6601 9.39,15.3789 l 106.54,56.2185 c 5.04,2.672 12.95,1.891 17.3,-1.758 L 2981.24,9.80859 c 4.51,-3.67968 12.76,-6.60937 18.58,-6.60937 h 214.67 c 5.73,0 6.77,2.92969 2.26,6.60937 z M 2403.22,334.051 h -609.56 c -5.82,0 -13.39,-3.742 -16.87,-8.332 l -24.85,-32.731 c -3.43,-4.566 -6.3,-13.09 -6.3,-18.816 V 63.0117 c 0,-5.75 2.87,-14.1914 6.3,-18.7929 l 24.85,-32.75 c 3.48,-4.60942 11.05,-8.26958 16.87,-8.26958 h 609.56 c 5.82,0 10.6,4.73047 10.6,10.46098 v 89.9808 c 0,5.73 -4.78,10.418 -10.6,10.418 h -448.79 c -5.83,0 -10.43,4.722 -10.43,10.523 v 88.039 c 0,5.777 4.6,10.488 10.43,10.488 h 448.79 c 5.82,0 10.6,4.711 10.6,10.5 v 89.942 c 0,5.84 -4.78,10.5 -10.6,10.5 z m -1030.19,-168.25 -49.65,65.539 c -3.5,4.551 -11.08,8.289 -16.83,8.289 h -37.09 c -5.82,0 -13.38,-3.738 -16.86,-8.289 l -49.62,-65.539 c -3.52,-4.539 -1.61,-8.301 4.1,-8.301 h 161.8 c 5.76,0 7.64,3.762 4.15,8.301 z M 1688.5,11.6484 c 3.47,-4.53902 1.56,-8.29684 -4.17,-8.29684 l -191.67,0.0586 c -5.74,0 -13.32,3.78906 -16.78,8.35154 l -32.48,42.7969 c -3.41,4.5898 -10.99,8.3828 -16.74,8.3828 h -278.22 c -5.8,0 -13.34,-3.793 -16.79,-8.3828 l -32.44,-42.7969 c -3.5,-4.56248 -11.04,-8.35154 -16.82,-8.35154 L 890.766,3.35156 c -5.801,0 -7.664,3.75782 -4.168,8.29684 L 1124.61,325.719 c 3.47,4.59 11.02,8.332 16.8,8.332 h 292.28 c 5.74,0 13.32,-3.742 16.75,-8.332 z M 814.617,323.551 V 13.5508 c 0,-5.71877 -4.699,-10.42971 -10.472,-10.42971 H 625.68 c -5.778,0 -10.469,4.71094 -10.469,10.42971 V 162.43 c 0,5.66 -2.852,6.652 -6.324,2.109 L 492.867,11.4688 C 489.434,6.85938 481.855,3.12109 476.094,3.12109 H 338.52 c -5.801,0 -13.321,3.73829 -16.836,8.34771 l -116,153.0702 c -3.496,4.543 -6.297,3.551 -6.297,-2.109 V 13.5508 c 0,-5.71877 -4.715,-10.42971 -10.449,-10.42971 H 10.4297 C 4.66797,3.12109 0,7.83203 0,13.5508 V 323.551 c 0,5.84 4.66797,10.5 10.4297,10.5 H 240.574 c 5.739,0 13.278,-3.742 16.754,-8.332 L 400.969,136.211 c 3.469,-4.59 9.187,-4.59 12.66,0 l 143.637,189.508 c 3.496,4.59 11.058,8.332 16.754,8.332 h 230.125 c 5.773,0 10.472,-4.66 10.472,-10.5" /></g></g></svg>