<?xml version="1.0" encoding="UTF-8" standalone="no"?>
<svg
   xmlns:dc="http://purl.org/dc/elements/1.1/"
   xmlns:cc="http://creativecommons.org/ns#"
   xmlns:rdf="http://www.w3.org/1999/02/22-rdf-syntax-ns#"
   xmlns:svg="http://www.w3.org/2000/svg"
   xmlns="http://www.w3.org/2000/svg"
   viewBox="0 0 257.01334 257.01334"
   height="257.01334"
   width="257.01334"
   xml:space="preserve"
   id="svg2"
   version="1.1"><metadata
     id="metadata8"><rdf:RDF><cc:Work
         rdf:about=""><dc:format>image/svg+xml</dc:format><dc:type
           rdf:resource="http://purl.org/dc/dcmitype/StillImage" /></cc:Work></rdf:RDF></metadata><defs
     id="defs6" /><g
     transform="matrix(1.3333333,0,0,-1.3333333,0,257.01333)"
     id="g10"><g
       transform="scale(0.1)"
       id="g12"><path
         id="path14"
         style="fill:#ffffff;fill-opacity:1;fill-rule:evenodd;stroke:none"
         d="M 0,1927.56 H 1927.56 V 0 H 0 v 1927.56" /><path
         id="path16"
         style="fill:#231f20;fill-opacity:1;fill-rule:evenodd;stroke:none"
         d="M 514.188,1090.93 H 431.613 L 445.188,954.059 H 346.207 L 264.969,840.648 343.945,1090.93 H 268.156 L 228.566,966.496 198.023,1090.93 H 108.098 L 28.3477,836.414 h 75.7893 l 42.418,135.176 33.367,-135.176 h 82.016 1.695 84.273 l 41.289,57.691 h 61.649 l 5.656,-57.691 h 82.574 l -24.886,254.516 v 0" /><path
         id="path18"
         style="fill:#231f20;fill-opacity:1;fill-rule:evenodd;stroke:none"
         d="m 1234.55,836.414 84.27,117.645 h 98.98 l -13.58,136.871 h 82.58 l 24.88,-254.516 h -82.57 l -5.66,57.691 h -61.65 l -41.28,-57.691 h -85.97 v 0" /><path
         id="path20"
         style="fill:#231f20;fill-opacity:1;fill-rule:evenodd;stroke:none"
         d="m 1145.05,1090.93 -9.14,-28.93 v 0 c -14.36,30.65 -50.61,37.72 -89.98,37.72 -53.422,0 -109.575,-17.27 -115.539,-77.01 -4.461,-44.698 20.117,-60.526 49.797,-77.64 28.562,-16.465 57.322,-23.363 55.172,-38.66 -1.73,-12.305 -12.29,-19.941 -28.24,-19.941 -13.362,0 -22.94,0.738 -29.472,6.676 -6.093,6.679 -8.656,9.929 -7.39,28.921 v 0 h -79.024 v 0 c -22.754,-78.3 43.227,-94.222 104.075,-94.222 57.511,0 116.441,15.347 122.031,79.168 2.76,31.535 -13.01,56.66 -50.11,74.789 -24.09,11.769 -54.52,22.589 -52.26,39.469 2.32,17.35 16.4,18.19 24.37,18.13 14.66,0.06 30.68,-3.68 29.45,-31.79 v 0 h 71.93 v 0 c 1.57,10.41 1.99,19.64 1.48,27.89 v 0 h 52.63 l -62.78,-199.086 h 87.66 l 61.65,199.086 h 57.69 l 17.54,55.43 h -211.54 v 0" /><path
         id="path22"
         style="fill:#231f20;fill-opacity:1;fill-rule:evenodd;stroke:none"
         d="M 922.496,1090.93 H 834.828 L 755.082,836.414 h 87.664 l 79.75,254.516 v 0" /><path
         id="path24"
         style="fill:#231f20;fill-opacity:1;fill-rule:evenodd;stroke:none"
         d="m 826.172,1090.93 h -91.629 l -76.918,-140.27 -15.836,140.27 h -85.973 l 37.899,-254.516 h 76.351 l 156.106,254.516 v 0" /><path
         id="path26"
         style="fill:#231f20;fill-opacity:1;fill-rule:evenodd;stroke:none"
         d="m 1744.44,1096.6 h -149.31 l -80.89,-260.174 h 87.1 l 31.89,101.808 h 38.81 v 0 c 21.5,0 21.5,-23.754 16.97,-37.332 v 0 l -20.36,-64.476 h 81.44 l 18.67,57.691 v 0 c 7.35,22.625 2.83,57.125 -14.14,63.91 9.05,4.528 36.76,20.93 45.81,57.693 13.01,58.25 -22.05,80.88 -55.99,80.88 v 0 z m -20.93,-78.05 c -2.83,-18.1 -22.62,-26.023 -40.72,-26.023 v 0 h -32.56 l 15.59,49.773 h 33.93 v 0 c 9.62,0 26.93,-3.44 23.76,-23.75 v 0 0" /><path
         id="path28"
         style="fill:#231f20;fill-opacity:1;fill-rule:evenodd;stroke:none"
         d="m 1846.09,887.066 h 14.01 l 12.52,-35.121 12.65,35.121 h 13.94 v -49.062 h -9 v 39.59 l -13.6,-39.59 h -7.85 l -13.67,39.59 v -39.59 h -9 v 49.062 0" /><path
         id="path30"
         style="fill:#231f20;fill-opacity:1;fill-rule:evenodd;stroke:none"
         d="m 1811.98,878.875 h -16.03 v 8.191 h 41.82 v -8.191 h -16.04 v -40.871 h -9.75 v 40.871 0" /></g></g></svg>