<?xml version="1.0" encoding="UTF-8" standalone="no"?>
<svg
   xmlns:dc="http://purl.org/dc/elements/1.1/"
   xmlns:cc="http://creativecommons.org/ns#"
   xmlns:rdf="http://www.w3.org/1999/02/22-rdf-syntax-ns#"
   xmlns:svg="http://www.w3.org/2000/svg"
   xmlns="http://www.w3.org/2000/svg"
   viewBox="0 0 257.33334 257.33334"
   height="257.33334"
   width="257.33334"
   xml:space="preserve"
   id="svg2"
   version="1.1"><metadata
     id="metadata8"><rdf:RDF><cc:Work
         rdf:about=""><dc:format>image/svg+xml</dc:format><dc:type
           rdf:resource="http://purl.org/dc/dcmitype/StillImage" /></cc:Work></rdf:RDF></metadata><defs
     id="defs6" /><g
     transform="matrix(1.3333333,0,0,-1.3333333,0,257.33333)"
     id="g10"><g
       transform="scale(0.1)"
       id="g12"><path
         id="path14"
         style="fill:#ffffff;fill-opacity:1;fill-rule:evenodd;stroke:none"
         d="M 0,1927.56 H 1927.56 V 0 H 0 v 1927.56" /><path
         id="path16"
         style="fill:#231f20;fill-opacity:1;fill-rule:evenodd;stroke:none"
         d="m 1842.52,954.633 c 0,-207.637 -458.47,-366.051 -883.801,-366.051 -355.676,0 -873.6799,113.109 -873.6799,372.016 0,193.352 400.7339,378.372 869.5199,378.372 382.391,0 887.961,-106.95 887.961,-384.337" /><path
         id="path18"
         style="fill:#ffffff;fill-opacity:1;fill-rule:evenodd;stroke:none"
         d="m 1811.75,955.41 c 0,-177.597 -433.66,-336.012 -851.422,-336.012 -347.219,0 -842.422,108.418 -842.422,341.391 0,174.021 416.778,349.211 838.703,349.211 344.121,0 855.141,-104.88 855.141,-354.59" /><path
         id="path20"
         style="fill:#231f20;fill-opacity:1;fill-rule:evenodd;stroke:none"
         d="m 1791.25,956.684 c 0,-159.844 -419.37,-316.594 -830.437,-316.594 -341.434,0 -816.239,111.402 -816.239,321.086 0,156.614 381.555,326.274 816.196,326.274 347.41,0 830.48,-106.02 830.48,-330.766" /><path
         id="path22"
         style="fill:#ffffff;fill-opacity:1;fill-rule:evenodd;stroke:none"
         d="m 1279.17,1066.76 c 6.26,-6.7 7.04,-13.9 5.28,-22.36 -4.45,-15.21 -13.99,-29.2 -30.97,-30.97 -10.27,0.45 -17.76,3.77 -19.08,14.48 -1.37,17.48 2.64,27.74 17.07,38.85 8.95,5.82 19.63,10.33 27.7,0" /><path
         id="path24"
         style="fill:#ffffff;fill-opacity:1;fill-rule:evenodd;stroke:none"
         d="m 524.215,1137.36 c 18.348,-17.86 22.758,-50.74 16.543,-74.46 -8.512,-29.45 -34.973,-68.689 -66.731,-74.916 -18.793,-0.929 -37.668,13.506 -47.5,29.166 -12.964,20.11 -6.074,57.29 6.895,75.58 18.289,29.07 55.043,66.06 90.793,44.63 z m 34.894,15.95 c 13.2,-15.56 30.383,-64.39 18.344,-107.73 -12.09,-38.85 -46.191,-81.517 -86.301,-90.756 -37.082,-6.707 -67.523,16.531 -87.726,45.736 -21.969,-60.365 -22.692,-131.162 -2.5,-190.212 -10.801,-10.125 -22.895,-15.946 -38.539,-23.09 -7.141,1.816 -9.637,2.887 -11.551,8.652 -27,80.727 -19.816,197.856 29.898,295.46 29.887,58.32 73.918,88.9 120.004,88.2 16.586,-2.88 37.817,-2.14 58.371,-26.26" /><path
         id="path26"
         style="fill:#ffffff;fill-opacity:1;fill-rule:evenodd;stroke:none"
         d="m 1101.91,874.836 c -5.18,-7.297 -17.81,-14.785 -22.3,-10.719 -34.3,33.016 -7.01,49.219 7.58,75.535 4.45,7.629 35.76,59.207 41.13,81.078 17.48,40.7 34.55,96.96 12.97,125.43 -27,23.68 -62.32,-9.44 -80.96,-40.46 -26.28,-43.74 -56.46,-131.071 -36.79,-209.243 -10.32,-15.215 -26.767,-32.383 -45.06,-32.828 -5.824,1.801 -13.55,5.187 -14.437,10.566 3.137,30.387 17.809,69.563 24.52,98.633 2.246,8.942 -1.43,12.371 -4.067,20.844 -3.172,8.948 -19.969,5.187 -28.91,5.187 -23.148,-5.882 -30.523,-11.261 -48.832,1.261 -6.695,2.2 -7.531,-7.725 -11.981,-13.495 -15.41,-57.055 -26.71,-98.535 -56.847,-122.996 -9.348,-4.449 -22.121,-12.383 -39.285,-1.414 26.222,22.687 57.132,66.094 57.769,101.07 -1.312,18.293 -12.867,36.695 -30.285,42.465 -54.102,7.59 -105.469,-83.363 -72.504,-136.352 -6.254,-8.46 -12.621,-10.804 -29.887,-10.804 -14.781,5.035 -16.39,19.265 -19.082,25.047 -2.203,46.82 42.911,146.089 42.911,146.089 47.789,29.05 108.406,38.84 166.042,24.5 6.407,15.12 9.098,23.54 14.879,37.24 0,4.45 -73.972,10.32 -116.836,-2.98 -13.398,-3.58 -37.859,-12.29 -52.242,-18.75 0,0 12.953,39.98 18.735,55.83 -20.899,-2.16 -31.313,-3.58 -43.602,-7.93 l -19.07,-57.64 -4.504,-17.36 c -28.375,-12.87 -45.445,-0.73 -64.684,1.51 -5.226,-9.73 -7.777,-16.68 -8.652,-29.15 22.605,-14.88 47.801,-4.55 57.637,-7.24 -16.102,-53.572 -41.34,-127.893 -77.551,-143.643 -9.832,-4.496 -27.93,-10.32 -39.582,-4.066 28.57,28.039 77.691,77.109 54.461,119.238 -30.926,34.681 -58.371,3.758 -70.891,-3.426 -31.164,-35.57 -45.504,-61.601 -34.355,-109.89 -9.043,-4.106 -27.985,-8.809 -38.692,-13.493 0.543,-11.609 1.223,-17.667 5.574,-26.667 19.668,2.687 32.54,10.914 52.938,19.757 l 7.293,-5.765 c 29.055,-17.422 57.875,-18.348 84.68,1.316 12.285,5.672 24.269,14.77 34.351,26.766 17.848,-25.489 34.047,-44.766 80.863,-31.801 24.618,22.996 22.704,-9.445 61.602,-5.238 69.715,1.465 83.852,78.281 101.266,133.715 6.269,1.8 23.535,5.324 28.875,-0.059 -4.465,-39.285 -37.141,-85.715 -7.641,-122.84 17.863,-15.172 51.172,-7.101 70.353,3.617 12.87,7.199 18.54,18.836 28.37,20.399 15.66,-20.551 32.59,-39.426 59.4,-32.282 42.81,17.848 59.15,57.969 63.65,103.125 0,0 -1.62,12.575 3.76,13.895 10.38,2.492 35.62,3.133 46.59,1.219 -9.74,-20.789 -19.82,-52.739 -13.12,-79.992 4.02,-16.086 14.24,-28.567 30.77,-33.02 38.71,-11.984 79.99,27.984 85.28,34.934 14.53,-18.293 32.19,-45.641 64.58,-44.418 35.96,1.414 54.16,11.343 85.32,35.558 16.1,-17.406 26.47,-30.179 48.82,-32.386 17.87,0 37.92,-1.704 51.82,7.687 1.76,10.273 2.94,16.527 3.96,28.332 -43.54,-20.414 -59.74,-2.594 -70.95,12.176 -11.59,16.976 10.48,60.558 14.92,77.59 12.53,30.832 16.3,44.522 29.02,69.872 41.98,13.83 83.61,43.29 133.95,24.12 12.52,10.27 17.96,22.83 18.41,38.49 -48.74,18.31 -101.52,-17.42 -139.15,-25.14 1.32,15.21 10.28,34.45 15.32,50.88 -10.52,0.68 -27.41,-1.91 -41.1,-2.05 -8.02,-19.66 -12.42,-40.47 -23.72,-63.27 -19.24,-2.69 -41.3,6.12 -51.48,9.25 -5.23,-12.58 -7.77,-18.89 -12.82,-30.48 5.83,-8.52 19.92,-7.24 29.3,-9.49 7.15,-3.57 21.1,1.07 23.09,-5.53 -19.66,-52.297 -35.55,-117.309 -86.05,-151.273 -9.83,-4.938 -24.5,-8.707 -34.33,-3.758 -14.73,9.332 -26.72,29.594 -29.22,46.859 33.03,38.168 71.78,102.502 89.63,155.682 4.51,29.94 14.69,60.47 -19.71,79.65 -19.66,9.39 -35.63,-5.67 -50.84,-17.71 -44.23,-47.51 -75.64,-133.762 -59.98,-219.618 -10.71,-14.727 -29.35,-32.144 -45.44,-37.973 -10.72,-2.687 -23.19,1.18 -29.91,10.086 -12.02,19.664 2.26,49.856 9.45,68.145 4.89,13.414 11.8,16.433 17.71,30.332 -4.88,4.449 -9.74,9.637 -15.06,13.215 -6.66,2 -28.37,-11.789 -41.34,-13.117 -24.47,-2 -37.48,6.265 -57.06,15.117 -8.94,6.265 -11.09,-1.364 -17.07,-4.649 3.33,-19.859 1.22,-81.601 -21.67,-110.902 z M 606.992,955.16 c -2.187,-24.558 -16.668,-48.523 -45.289,-70.883 -14.535,15.407 6.75,67.996 29.442,82.782 10.082,5.031 15.128,-2.164 15.847,-11.899 z m 220.852,8.278 c 0,-24.864 -24.617,-61.059 -42.563,-71.336 -11.359,18.929 -3.922,53.086 5.922,70.546 5.774,9.348 16.684,13.45 21.18,15.215 7.14,1.817 15.461,-5.035 15.461,-14.425 z m 579.996,129.102 c -2.02,-32.29 -19.57,-62.17 -34.3,-93.005 -8.51,-15.656 -22.66,-41.047 -35.63,-54.055 -5.81,10.317 -4.88,34.336 -3.95,46.86 7.15,38.46 21.68,80.53 50.69,110.03 13.88,16.54 25.82,2.01 23.19,-9.83 z m -283.86,19.97 c 2.54,-62.34 -56.35,-167.764 -68.59,-171.58 -14.49,15.16 6.31,138.54 52.98,177.98 6.75,3.53 13.65,0.74 15.61,-6.4" /></g></g></svg>