<?xml version="1.0" encoding="UTF-8" standalone="no"?>
<svg
   xmlns:dc="http://purl.org/dc/elements/1.1/"
   xmlns:cc="http://creativecommons.org/ns#"
   xmlns:rdf="http://www.w3.org/1999/02/22-rdf-syntax-ns#"
   xmlns:svg="http://www.w3.org/2000/svg"
   xmlns="http://www.w3.org/2000/svg"
   viewBox="0 0 264.56641 566.92969"
   height="566.92969"
   width="264.56641"
   xml:space="preserve"
   id="svg2"
   version="1.1"><metadata
     id="metadata8"><rdf:RDF><cc:Work
         rdf:about=""><dc:format>image/svg+xml</dc:format><dc:type
           rdf:resource="http://purl.org/dc/dcmitype/StillImage" /></cc:Work></rdf:RDF></metadata><defs
     id="defs6"><clipPath
       id="clipPath14"
       clipPathUnits="userSpaceOnUse"><path
         id="path12"
         d="M 207,183.80273 H 405.4248 V 609 H 207 Z" /></clipPath><linearGradient
       id="linearGradient24"
       spreadMethod="pad"
       gradientTransform="matrix(0.59969,0,0,0.59969,-1402.8003,1739.3687)"
       gradientUnits="userSpaceOnUse"
       y2="-2289.7976"
       x2="3017.6743"
       y1="-2215.7949"
       x1="2764.6729"><stop
         id="stop18"
         offset="0"
         style="stop-opacity:1;stop-color:#ffffff" /><stop
         id="stop20"
         offset="0.62290761"
         style="stop-opacity:1;stop-color:#ffffff" /><stop
         id="stop22"
         offset="1"
         style="stop-opacity:1;stop-color:#d91920" /></linearGradient><radialGradient
       id="radialGradient32"
       spreadMethod="pad"
       gradientTransform="matrix(0.59969,0,0,0.59969,-1402.8003,1739.3687)"
       gradientUnits="userSpaceOnUse"
       r="131.72632"
       cy="-2134.4893"
       cx="2840.2656"
       fy="-2134.4893"
       fx="2840.2656"><stop
         id="stop28"
         offset="0"
         style="stop-opacity:1;stop-color:#f1a18b" /><stop
         id="stop30"
         offset="1"
         style="stop-opacity:1;stop-color:#d91920" /></radialGradient><radialGradient
       id="radialGradient42"
       spreadMethod="pad"
       gradientUnits="userSpaceOnUse"
       r="50.954788"
       cy="452.94336"
       cx="306.50391"
       fy="452.94336"
       fx="306.50391"><stop
         id="stop38"
         offset="0"
         style="stop-opacity:1;stop-color:#f1a18b" /><stop
         id="stop40"
         offset="1"
         style="stop-opacity:1;stop-color:#d91920" /></radialGradient></defs><g
     clip-path="url(#clipPath14)"
     transform="matrix(1.3333333,0,0,-1.3333333,-276,812)"
     id="g10"><path
       id="path16"
       style="fill:#ffffff;fill-opacity:1;fill-rule:nonzero;stroke:#d91920;stroke-width:2.39899993;stroke-linecap:butt;stroke-linejoin:miter;stroke-miterlimit:4;stroke-dasharray:none;stroke-opacity:1"
       d="m 335.8066,390.2305 c 11.2696,8.7119 18.5352,22.3545 18.5352,37.7016 0,15.3467 -7.2656,28.9893 -18.5352,37.7017 v 15.3711 c -8.6347,4.7451 -18.5527,7.4463 -29.1005,7.4463 -10.0987,0 -19.6177,-2.4771 -27.9883,-6.8516 v -15.1304 c -11.9033,-8.6601 -19.648,-22.6909 -19.648,-38.5371 0,-15.8467 7.7447,-29.8774 19.648,-38.5376 v -80.0527 c 8.3706,-4.375 17.8896,-6.8516 27.9883,-6.8516 10.5478,0 20.4658,2.7012 29.1005,7.4463 z" /><path
       id="path26"
       style="fill:url(#linearGradient24);fill-opacity:1;fill-rule:nonzero;stroke:none"
       d="m 335.8066,390.2305 c 11.2696,8.7119 18.5352,22.3545 18.5352,37.7016 0,15.3467 -7.2656,28.9893 -18.5352,37.7017 v 15.3711 c -8.6347,4.7451 -18.5527,7.4463 -29.1005,7.4463 -10.0987,0 -19.6177,-2.4771 -27.9883,-6.8516 v -15.1304 c -11.9033,-8.6601 -19.648,-22.6909 -19.648,-38.5371 0,-15.8467 7.7447,-29.8774 19.648,-38.5376 v -80.0527 c 8.3706,-4.375 17.8896,-6.8516 27.9883,-6.8516 10.5478,0 20.4658,2.7012 29.1005,7.4463 z" /><path
       id="path34"
       style="fill:url(#radialGradient32);fill-opacity:1;fill-rule:nonzero;stroke:none"
       d="m 351.793,427.9321 c 0,15.0362 -7.3672,28.3448 -18.6826,36.5367 v 15.5683 c -1.9063,0.9683 -3.8721,1.8325 -5.8916,2.5903 v -14.5488 c -2.3331,1.1943 -4.7784,2.1978 -7.3243,2.9756 v 13.7856 c -2.8574,0.6597 -5.7949,1.1084 -8.7968,1.3316 v -13.3687 c -1.4454,0.1402 -2.9092,0.2163 -4.3916,0.2163 -1.4947,0 -2.9717,-0.0766 -4.4292,-0.2192 v 13.3691 c -3.001,-0.2246 -5.939,-0.6762 -8.7964,-1.3378 v -13.7876 c -2.2422,-0.6871 -4.4097,-1.544 -6.4883,-2.5562 v 14.4336 c -2.0176,-0.7236 -3.9839,-1.5547 -5.8921,-2.4868 v -15.398 c -11.7666,-8.1357 -19.481,-21.7163 -19.481,-37.104 0,-15.3882 7.7144,-28.9687 19.481,-37.104 v -80.2715 c 1.9082,-0.9316 3.8745,-1.7627 5.8921,-2.4863 v 79.3067 c 2.0786,-1.0127 4.2461,-1.8692 6.4883,-2.5567 v -78.6601 c 2.8574,-0.6622 5.7954,-1.1133 8.7964,-1.3379 v 78.2422 c 1.4575,-0.1426 2.9345,-0.2198 4.4292,-0.2198 1.4824,0 2.9462,0.0772 4.3916,0.2158 v -78.2402 c 3.0019,0.2227 5.9394,0.6719 8.7968,1.3311 v 78.6582 c 2.5459,0.7783 4.9912,1.7822 7.3243,2.9756 v -79.4219 c 2.0195,0.7578 3.9853,1.623 5.8916,2.5908 v 80.4414 c 11.3154,8.1914 18.6826,21.5 18.6826,36.5366 z" /><path
       id="path36"
       style="fill:#ffffff;fill-opacity:1;fill-rule:nonzero;stroke:none"
       d="m 306.7085,466.0273 c -21.0386,0 -38.0942,-17.0556 -38.0942,-38.0942 0,-21.0386 17.0556,-38.0942 38.0942,-38.0942 21.0386,0 38.0942,17.0556 38.0942,38.0942 0,21.0386 -17.0556,38.0942 -38.0942,38.0942 z" /><path
       id="path44"
       style="fill:url(#radialGradient42);fill-opacity:1;fill-rule:nonzero;stroke:none"
       d="m 306.7061,462.707 c -19.2056,0 -34.7749,-15.5698 -34.7749,-34.7749 0,-19.2055 15.5693,-34.7758 34.7749,-34.7758 19.206,0 34.7744,15.5703 34.7744,34.7758 0,19.2051 -15.5684,34.7749 -34.7744,34.7749 z" /><path
       id="path46"
       style="fill:#ffffff;fill-opacity:1;fill-rule:nonzero;stroke:none"
       d="m 310.8828,455.6587 h 8.4531 l -10.4355,-12.418 11.375,-13.8095 h -8.8359 l -8.8003,11.3745 h -0.0694 v -11.3745 h -6.8178 v 26.2275 h 6.8178 v -10.8179 h 0.0694 z" /><path
       id="path48"
       style="fill:#ffffff;fill-opacity:1;fill-rule:nonzero;stroke:none"
       d="m 298.4106,409.6309 h 0.0694 l 5.4961,16.9404 h 5.4262 l 5.1485,-16.9404 h 0.0693 l 4.9395,16.9404 h 7.0957 l -8.3828,-26.2275 h -6.9571 l -4.5913,15.2006 h -0.0698 l -5.148,-15.2006 h -6.9223 l -7.8262,26.2275 h 7.0957 z" /></g></svg>