<?xml version="1.0" encoding="UTF-8" standalone="no"?>
<svg
   xmlns:dc="http://purl.org/dc/elements/1.1/"
   xmlns:cc="http://creativecommons.org/ns#"
   xmlns:rdf="http://www.w3.org/1999/02/22-rdf-syntax-ns#"
   xmlns:svg="http://www.w3.org/2000/svg"
   xmlns="http://www.w3.org/2000/svg"
   viewBox="0 0 780.62665 296.93332"
   height="296.93332"
   width="780.62665"
   xml:space="preserve"
   id="svg2"
   version="1.1"><metadata
     id="metadata8"><rdf:RDF><cc:Work
         rdf:about=""><dc:format>image/svg+xml</dc:format><dc:type
           rdf:resource="http://purl.org/dc/dcmitype/StillImage" /></cc:Work></rdf:RDF></metadata><defs
     id="defs6" /><g
     transform="matrix(1.3333333,0,0,-1.3333333,0,296.93333)"
     id="g10"><g
       transform="scale(0.1)"
       id="g12"><path
         id="path14"
         style="fill:#1a64b7;fill-opacity:1;fill-rule:nonzero;stroke:none"
         d="M 318.75,2227.03 C 142.676,2227.03 0,2084.41 0,1908.34 V 1097.58 C 0,921.563 142.676,778.828 318.75,778.828 H 5536 c 176.07,0 318.69,142.735 318.69,318.752 v 810.76 c 0,176.07 -142.62,318.69 -318.69,318.69 H 318.75" /><path
         id="path16"
         style="fill:#1a64b7;fill-opacity:1;fill-rule:nonzero;stroke:none"
         d="M 268.242,453.867 C 240.82,406.289 227.109,345.586 227.109,271.465 c 0,-97.793 18.282,-169.981 54.844,-216.7384 27.774,-35.3907 62.168,-53.08597 103.008,-53.08597 47.461,0 85.195,21.56247 113.144,64.80467 23.379,35.6247 36.973,80.1567 41.192,133.0077 H 492.832 C 488.086,166.348 480.82,139.629 471.035,119.414 452.754,80.8594 425.859,61.582 390.82,61.582 c -38.203,0 -66.914,18.2813 -86.132,54.844 -19.278,36.621 -28.946,84.433 -28.946,143.379 0,71.836 10.664,125.215 31.992,159.961 21.446,34.804 49.336,52.148 84.024,52.148 28.476,0 50.508,-9.492 66.269,-28.359 15.762,-18.985 26.192,-44.532 31.465,-76.992 h 46.524 c -2.754,42.656 -16.465,80.742 -41.016,114.257 -24.609,33.575 -59.18,50.391 -103.77,50.391 -52.207,0 -93.164,-25.781 -122.988,-77.344" /><path
         id="path18"
         style="fill:#1a64b7;fill-opacity:1;fill-rule:nonzero;stroke:none"
         d="M 796.523,438.105 C 772.852,389.648 761.074,331.582 761.074,263.438 761.074,188.145 774.785,125.918 802.5,76.6406 833.496,25.5469 876.035,0 930.234,0 c 57.95,0 102.596,29.1797 133.886,87.5391 26.72,49.8049 40.02,112.1489 40.02,187.2659 0,69.375 -11.6,126.328 -34.92,170.742 -30,57.07 -75.939,85.664 -138.048,85.664 -59.414,0 -104.356,-31.172 -134.649,-93.106 M 840,118.242 c -19.687,38.203 -29.648,85.078 -29.648,140.86 0,69.609 11.543,122.226 34.57,157.91 22.969,35.801 52.734,53.613 89.121,53.613 37.559,0 67.147,-18.047 88.767,-54.141 21.62,-35.976 32.46,-83.554 32.46,-142.734 0,-55.898 -9.37,-105.352 -28.12,-148.242 -18.75,-43.1252 -49.162,-64.6291 -91.173,-64.6291 -44.18,0 -76.289,19.043 -95.977,57.3631" /><path
         id="path20"
         style="fill:#1a64b7;fill-opacity:1;fill-rule:nonzero;stroke:none"
         d="M 1396.41,14.6484 V 230.332 h 108.57 c 19.4,0 33.75,-3.105 42.89,-9.199 16,-11.25 24.55,-33.281 25.61,-66.094 l 2.87,-83.9062 c 0.64,-19.6875 1.4,-32.9297 2.46,-39.6094 0.99,-6.914 2.17,-12.539 3.81,-16.875 h 58.42 v 11.3672 c -7.39,4.4532 -12.37,14.7657 -15.3,30.7032 -1.76,9.4335 -2.81,23.6718 -3.4,42.832 l -1.64,67.4412 c -0.76,29.18 -4.63,50.332 -11.6,63.34 -7.03,13.008 -17.34,23.496 -30.99,31.465 15.64,11.601 27.77,27.07 36.5,46.23 8.67,19.161 13.07,43.77 13.07,73.887 0,57.774 -16.59,97.383 -49.57,118.828 -17.52,11.192 -39.67,16.758 -66.45,16.758 H 1348.71 V 14.6484 h 47.7 m 0,444.3746 h 116.48 c 16.35,0 29.3,-3.398 39.14,-10.312 18.05,-13.066 27.19,-37.383 27.19,-73.242 0,-33.34 -6.45,-56.485 -19.45,-69.141 -13.01,-12.773 -30.71,-19.101 -53.21,-19.101 h -110.15 v 171.796" /><path
         id="path22"
         style="fill:#1a64b7;fill-opacity:1;fill-rule:nonzero;stroke:none"
         d="M 1931.6,14.6484 V 227.227 h 110.63 c 35.5,0 61.75,14.648 78.75,43.593 17.16,29.121 25.66,63.282 25.66,102.598 0,45.645 -9.49,81.035 -28.59,106.23 -19.28,25.254 -44.53,37.852 -75.82,37.852 H 1883.91 V 14.6484 h 47.69 m 146.95,289.5706 c -13.47,-13.008 -30.76,-19.453 -52.14,-19.453 h -94.81 v 174.257 h 94.81 c 18.39,0 32.93,-3.515 43.47,-10.664 19.1,-13.242 28.6,-38.379 28.6,-75.293 0,-32.871 -6.57,-55.839 -19.93,-68.847" /><path
         id="path24"
         style="fill:#1a64b7;fill-opacity:1;fill-rule:nonzero;stroke:none"
         d="m 2405.98,438.105 c -23.68,-48.457 -35.51,-106.523 -35.51,-174.667 0,-75.293 13.83,-137.52 41.48,-186.7974 C 2442.89,25.5469 2485.49,0 2539.63,0 c 57.95,0 102.6,29.1797 133.94,87.5391 26.72,49.8049 40.02,112.1489 40.02,187.2659 0,69.375 -11.71,126.328 -35.04,170.742 -29.76,57.07 -75.82,85.664 -137.92,85.664 -59.54,0 -104.36,-31.172 -134.65,-93.106 m 43.47,-319.863 c -19.68,38.203 -29.65,85.078 -29.65,140.86 0,69.609 11.55,122.226 34.46,157.91 23.08,35.801 52.73,53.613 89.18,53.613 37.5,0 67.15,-18.047 88.83,-54.141 21.62,-35.976 32.46,-83.554 32.46,-142.734 0,-55.898 -9.44,-105.352 -28.13,-148.242 -18.87,-43.1252 -49.16,-64.6291 -91.17,-64.6291 -44.3,0 -76.29,19.043 -95.98,57.3631" /><path
         id="path26"
         style="fill:#1a64b7;fill-opacity:1;fill-rule:nonzero;stroke:none"
         d="M 3005.8,14.6484 V 230.332 h 108.58 c 19.45,0 33.8,-3.105 42.94,-9.199 16,-11.25 24.44,-33.281 25.49,-66.094 l 2.99,-83.9062 c 0.7,-19.6875 1.47,-32.9297 2.4,-39.6094 0.94,-6.914 2.17,-12.539 3.87,-16.875 h 58.48 v 11.3672 c -7.39,4.4532 -12.54,14.7657 -15.47,30.7032 -1.64,9.4335 -2.81,23.6718 -3.22,42.832 l -1.76,67.4412 c -0.76,29.18 -4.63,50.332 -11.6,63.34 -6.98,13.008 -17.29,23.496 -31,31.465 15.59,11.601 27.83,27.07 36.45,46.23 8.78,19.161 13.18,43.77 13.18,73.887 0,57.774 -16.52,97.383 -49.63,118.828 -17.46,11.192 -39.61,16.758 -66.39,16.758 H 2958.28 V 14.6484 h 47.52 m 0,444.3746 h 116.43 c 16.4,0 29.41,-3.398 39.14,-10.312 18.16,-13.066 27.3,-37.383 27.3,-73.242 0,-33.34 -6.56,-56.485 -19.45,-69.141 -13.13,-12.773 -30.82,-19.101 -53.09,-19.101 H 3005.8 v 171.796" /><path
         id="path28"
         style="fill:#1a64b7;fill-opacity:1;fill-rule:nonzero;stroke:none"
         d="m 3507.42,14.6484 38.03,150.6446 h 139.22 l 35.8,-150.6446 h 52.15 L 3645,517.5 h -53.91 L 3458.55,14.6484 Z m 108.52,428.2036 53.44,-222.071 h -110.16 z" /><path
         id="path30"
         style="fill:#1a64b7;fill-opacity:1;fill-rule:nonzero;stroke:none"
         d="M 3968.67,517.5 H 4254.2 V 457.617 H 4135.66 V 14.6484 h -48.45 V 457.617 H 3968.67 V 517.5" /><path
         id="path32"
         style="fill:#1a64b7;fill-opacity:1;fill-rule:nonzero;stroke:none"
         d="m 4538.79,517.5 h -48.16 V 14.6484 h 48.16 V 517.5" /><path
         id="path34"
         style="fill:#1a64b7;fill-opacity:1;fill-rule:nonzero;stroke:none"
         d="m 4815.59,438.105 c -23.68,-48.457 -35.51,-106.523 -35.51,-174.667 0,-75.293 13.77,-137.52 41.37,-186.7974 C 4852.56,25.5469 4895.1,0 4949.3,0 c 57.95,0 102.59,29.1797 133.88,87.5391 26.66,49.8049 40.08,112.1489 40.08,187.2659 0,69.375 -11.66,126.328 -35.1,170.742 -29.76,57.07 -75.82,85.664 -137.93,85.664 -59.41,0 -104.35,-31.172 -134.64,-93.106 m 43.47,-319.863 c -19.8,38.203 -29.65,85.078 -29.65,140.86 0,69.609 11.55,122.226 34.57,157.91 22.97,35.801 52.62,53.613 89.13,53.613 37.55,0 67.14,-18.047 88.65,-54.141 21.74,-35.976 32.58,-83.554 32.58,-142.734 0,-55.898 -9.44,-105.352 -28.25,-148.242 -18.75,-43.1252 -49.1,-64.6291 -91.17,-64.6291 -44.29,0 -76.17,19.043 -95.86,57.3631" /><path
         id="path36"
         style="fill:#1a64b7;fill-opacity:1;fill-rule:nonzero;stroke:none"
         d="M 5407.62,14.6484 V 421.641 L 5588.03,14.6484 h 53.43 V 517.5 h -45.35 V 110.098 L 5418.4,517.5 h -56.37 V 14.6484 h 45.59" /><path
         id="path38"
         style="fill:#ffffff;fill-opacity:1;fill-rule:nonzero;stroke:none"
         d="M 2852.52,1231.99 V 1044.2 h -758.61 c -70.08,0 -110.16,37.56 -110.16,107.58 v 748.65 c 0,22.62 6.21,30.06 28.71,30.06 h 164.06 c 19.98,0 27.54,-11.25 27.54,-30.06 v -600.82 c 0,-25.08 17.46,-37.62 42.66,-37.62 h 574.51 c 25.02,0 31.29,-10.02 31.29,-30" /><path
         id="path40"
         style="fill:#ffffff;fill-opacity:1;fill-rule:nonzero;stroke:none"
         d="m 1820.98,1930.49 h -220.32 v -886.35 h 220.32 v 886.35" /><path
         id="path42"
         style="fill:#ffffff;fill-opacity:1;fill-rule:nonzero;stroke:none"
         d="M 3864.02,1231.99 V 1044.2 h -758.67 c -70.02,0 -110.1,37.56 -110.1,107.58 v 748.65 c 0,22.62 6.27,30.06 28.77,30.06 h 164.07 c 19.92,0 27.54,-11.25 27.54,-30.06 v -600.82 c 0,-25.08 17.46,-37.62 42.53,-37.62 h 574.57 c 25.08,0 31.29,-10.02 31.29,-30" /><path
         id="path44"
         style="fill:#ffffff;fill-opacity:1;fill-rule:nonzero;stroke:none"
         d="m 4249.63,1930.49 h -220.37 v -886.35 h 220.37 v 886.35" /><path
         id="path46"
         style="fill:#ffffff;fill-opacity:1;fill-rule:nonzero;stroke:none"
         d="M 1180.08,1259.53 H 665.508 c -25.02,0 -35.977,7.5 -36.27,30.06 v 388.12 c 0,24.97 11.25,34.99 33.809,34.99 H 1406.6 c 12.54,0 18.87,10.01 18.87,22.61 v 192.72 H 524.121 c -70.137,0 -110.215,-27.6 -110.215,-102.66 v -685.96 c 0,-60.11 47.344,-102.65 97.617,-102.65 80.098,0 912.597,2.46 912.597,2.46 l -1.11,413.08 c -0.12,11.25 -6.27,21.22 -20.16,22.5 h -177.77 c -11.25,0 -23.79,-4.92 -22.5,-22.5 v -170.27 c 0,-11.25 -8.73,-22.5 -22.5,-22.5" /><path
         id="path48"
         style="fill:#ffffff;fill-opacity:1;fill-rule:nonzero;stroke:none"
         d="m 5197.27,1265.74 h -514.52 c -24.96,0 -36.03,7.62 -36.27,30.12 v 388.01 c 0,25.13 11.31,35.15 33.81,35.15 h 743.56 c 12.48,0 18.69,9.96 18.69,22.5 v 192.78 h -901.17 c -70.2,0 -110.28,-27.54 -110.28,-102.66 v -686.01 c 0,-60.12 47.35,-102.78 97.68,-102.78 65.1,0 912.6,2.58 912.6,2.58 l -1.17,413.2 c -0.12,11.25 -6.33,21.21 -20.16,22.5 h -177.66 c -11.25,0 -23.84,-5.04 -22.5,-22.5 v -170.27 c 0,-11.37 -8.79,-22.62 -22.61,-22.62" /></g></g></svg>