<?xml version="1.0" encoding="UTF-8" standalone="no"?>
<svg
   xmlns:dc="http://purl.org/dc/elements/1.1/"
   xmlns:cc="http://creativecommons.org/ns#"
   xmlns:rdf="http://www.w3.org/1999/02/22-rdf-syntax-ns#"
   xmlns:svg="http://www.w3.org/2000/svg"
   xmlns="http://www.w3.org/2000/svg"
   viewBox="0 0 647.76001 134.61333"
   height="134.61333"
   width="647.76001"
   xml:space="preserve"
   id="svg2"
   version="1.1"><metadata
     id="metadata8"><rdf:RDF><cc:Work
         rdf:about=""><dc:format>image/svg+xml</dc:format><dc:type
           rdf:resource="http://purl.org/dc/dcmitype/StillImage" /></cc:Work></rdf:RDF></metadata><defs
     id="defs6" /><g
     transform="matrix(1.3333333,0,0,-1.3333333,0,134.61333)"
     id="g10"><g
       transform="scale(0.1)"
       id="g12"><path
         id="path14"
         style="fill:#253e7c;fill-opacity:1;fill-rule:nonzero;stroke:none"
         d="m 499.336,352.266 c -6.328,-14.153 -17.551,-26.692 -32.168,-37.707 -14.617,-11.016 -33.691,-16.289 -56.074,-16.289 -23.406,0 -40.985,3.164 -51.707,9.375 -11.692,6.914 -22.414,18.925 -36.094,35.742 L 144.816,558.281 c -5.832,7.383 -9.757,12.657 -13.156,14.676 -3.398,2.109 -7.793,3.078 -12.656,3.078 -2.93,0 -6.856,-1.437 -9.785,-3.664 -3.399,-2.578 -5.332,-6.211 -5.332,-10.43 V 310.281 H 0 v 292.09 c 0,5.274 1.93359,12.012 4.86328,20.949 3.92578,8.875 8.78902,17.782 17.05082,27.215 7.3554,9.375 17.6093,17.813 30.2656,24.141 12.6836,6.828 28.3008,9.961 45.8476,9.961 22.9107,0 40.4607,-3.66 53.6447,-11.571 12.683,-7.382 22.879,-15.644 31.172,-24.64 L 361.816,437.168 c 6.36,-7.297 10.754,-12.512 14.622,-14.68 3.925,-2.019 8.32,-3.105 13.679,-3.105 6.36,0 10.227,2.109 11.719,5.742 0.996,3.75 1.934,8.379 1.934,15.176 v 236.426 h 105.324 v -286.7 c 0,-10.547 -2.903,-23.086 -9.758,-37.761" /><path
         id="path16"
         style="fill:#253e7c;fill-opacity:1;fill-rule:nonzero;stroke:none"
         d="m 979.16,531.563 c 0,15.671 -4.89,29.324 -16.113,40.339 -10.195,11.016 -27.742,16.789 -50.711,16.789 H 750 c -6.355,0 -14.148,-2.609 -23.906,-7.382 -9.258,-4.602 -17.051,-10.93 -23.906,-18.809 -6.825,-7.883 -10.692,-16.32 -10.692,-25.168 v -71.863 c 0,-17.258 5.332,-31.965 14.121,-43.508 9.254,-12.012 21.914,-17.754 39.961,-17.754 h 180.938 c 14.617,0 27.273,4.133 37.527,12.012 10.227,7.91 15.117,20.949 15.117,39.844 m 88.74,-90.762 c -11.69,-17.254 -24.87,-30.293 -41.92,-40.254 -16.09,-10.02 -30.238,-15.293 -42.894,-15.293 H 701.191 c -23.378,0 -43.855,6.445 -61.906,18.43 -18.043,12.097 -31.668,27.246 -40.957,45.027 -9.754,18.43 -14.617,35.684 -14.617,51.914 v 137.871 c 0,15.176 2.93,29.356 9.727,43.008 6.328,13.652 15.117,26.191 25.871,36.652 11.187,10.457 22.41,18.895 35.097,25.137 13.184,5.801 25.34,8.934 36.59,8.934 h 277.91 c 12.688,0 27.805,-4.161 46.344,-12.012 18.05,-8.438 33.64,-21.504 47.82,-39.902 14.12,-18.809 21.88,-42.364 21.88,-71.25 V 421.492 c 0,-20.449 -5.83,-38.789 -17.05,-56.191" /><path
         id="path18"
         style="fill:#253e7c;fill-opacity:1;fill-rule:nonzero;stroke:none"
         d="m 1496.54,362.195 c -5.36,-10.429 -12.21,-19.922 -19.98,-28.828 -8.79,-8.906 -19.54,-16.699 -33.66,-23.613 -14.15,-6.707 -31.23,-9.871 -51.24,-9.871 -18.52,0 -35.57,3.66 -50.18,10.398 -14.65,6.856 -25.84,15.293 -35.13,24.727 -8.76,9.375 -14.59,18.312 -18.05,25.168 l -172.09,316.551 h 119.47 l 137.46,-247.469 c 3.93,-7.297 6.86,-11.985 8.79,-14.035 1.97,-2.664 5.39,-3.719 9.26,-3.719 4.9,0 8.76,1.055 10.76,3.719 1.93,2.609 5.35,7.265 8.78,14.035 l 138.43,247.469 h 120.97" /><path
         id="path20"
         style="fill:#253e7c;fill-opacity:1;fill-rule:nonzero;stroke:none"
         d="m 2087.05,436.641 c -3.4,3.66 -7.32,6.824 -12.66,9.402 -4.92,2.168 -8.78,3.254 -12.18,3.254 h -208.25 c -9.25,0 -16.11,-3.254 -19.51,-9.492 -3.86,-6.828 -5.86,-11.575 -5.86,-15.149 0,-7.968 2.46,-13.711 7.33,-18.34 4.37,-4.804 9.78,-6.914 14.65,-6.914 h 217.47 c 4.86,0 9.75,2.61 15.61,7.383 5.86,5.274 8.26,11.047 8.26,17.344 0,4.746 -1.46,8.848 -4.86,12.512 m 26.34,-126.887 v 25.723 c -2.93,-6.239 -9.29,-12.012 -17.55,-17.84 -8.79,-5.188 -16.58,-7.883 -23.44,-7.883 h -298.42 c -7.79,0 -16.08,2.109 -23.87,6.445 -8.29,4.102 -15.12,9.875 -20.04,17.168 -5.33,7.852 -7.77,16.289 -7.77,25.723 0,17.785 -0.99,40.957 -0.99,68.672 -0.44,27.187 -0.44,42.011 -0.44,43.476 0,20.977 5.83,37.266 17.05,48.75 10.69,12.071 23.41,17.871 38,17.871 h 282.33 c 12.72,0 23.91,-3.164 33.66,-9.961 10.23,-6.882 17.09,-13.125 21.48,-19.921 v 33.457 c 0,6.914 -2.43,14.179 -6.36,21.562 -4.39,7.383 -10.22,13.039 -18.05,17.813 -7.32,4.746 -16.58,7.382 -26.77,7.382 h -337.47 v 88.536 h 380.33 c 16.61,0 31.73,-3.661 45.85,-11.543 14.12,-7.762 26.83,-18.309 37.53,-30.965 11.25,-12.512 19.54,-25.11 25.87,-38.703 5.86,-13.711 8.79,-25.723 8.79,-36.27 V 309.754 h -109.72" /><path
         id="path22"
         style="fill:#253e7c;fill-opacity:1;fill-rule:nonzero;stroke:none"
         d="m 2683.42,426.445 c 0,45.614 -25.37,52.735 -70.2,52.735 H 2358.16 V 350.859 h 262.36 c 46.32,0 62.9,16.786 62.9,49.188 m -14.12,198.164 c 0,33.516 -37.09,38.555 -52.21,38.555 H 2358.16 V 519.695 h 256.47 c 26.83,0 54.67,8.614 54.67,45.118 z m -360.88,79.102 h 313.06 c 76.03,0 97.5,-39.551 97.5,-81.622 v -31.347 c 0,-26.426 -14.61,-53.321 -59.44,-57.891 v -1.992 c 39,-2.051 73.57,-16.699 73.57,-72.481 v -43.593 c 0,-51.211 -45.79,-78.106 -106.26,-78.106 h -318.43 v 367.032" /><path
         id="path24"
         style="fill:#253e7c;fill-opacity:1;fill-rule:nonzero;stroke:none"
         d="m 2821.44,677.313 h 49.71 V 403.066 c 0,-35.421 12.19,-56.25 79.49,-56.25 h 172.09 c 67.85,0 80,20.829 80,56.25 v 274.247 h 49.28 V 402.566 c 0,-74.472 -37.09,-96.355 -130.69,-96.355 h -169.19 c -93.17,0 -130.69,21.883 -130.69,96.355" /><path
         id="path26"
         style="fill:#253e7c;fill-opacity:1;fill-rule:nonzero;stroke:none"
         d="m 3340.25,425.918 h 46.85 v -25.871 c 0,-36.035 18.99,-53.231 80.86,-53.231 h 154.16 c 72.1,0 93.6,15.145 93.6,67.997 0,46.054 -18.54,57.714 -80.45,57.714 h -94.1 c -151.7,0 -201.38,9.141 -201.38,106.496 0,83.672 49.68,102.332 152.08,102.332 h 106.87 c 123.31,0 154.07,-31.464 154.07,-96.796 v -12.657 h -46.4 c -0.94,58.274 -7.27,68.907 -137.46,68.907 h -52.65 c -95.62,0 -129.73,-5.039 -129.73,-65.332 0,-43.594 13.63,-58.301 91.2,-58.301 h 146.78 c 97.03,0 137.49,-27.949 137.49,-90.203 v -23.907 c 0,-90.207 -74.09,-96.855 -147.27,-96.855 h -137.93 c -72.69,0 -136.59,12.801 -136.59,92.812" /><path
         id="path28"
         style="fill:#253e7c;fill-opacity:1;fill-rule:nonzero;stroke:none"
         d="m 4163.35,542.988 h 694.86 c -96.5,260.887 -1176.59,466.612 -2494.68,466.612 -363.75,0 -708.99,-15.733 -1021.09,-43.858 1513.1,-0.879 2742.89,-54.64 2820.91,-422.754" /><path
         id="path30"
         style="fill:#253e7c;fill-opacity:1;fill-rule:nonzero;stroke:none"
         d="M 4158.96,450.203 C 4048.24,96.8555 2832.6,44.7344 1342.44,43.7969 1654.54,15.6719 1999.78,0 2363.53,0 3653.76,0 4715.83,197.078 4850.92,450.203" /></g></g></svg>