<?xml version="1.0" encoding="UTF-8" standalone="no"?>
<svg
   xmlns:dc="http://purl.org/dc/elements/1.1/"
   xmlns:cc="http://creativecommons.org/ns#"
   xmlns:rdf="http://www.w3.org/1999/02/22-rdf-syntax-ns#"
   xmlns:svg="http://www.w3.org/2000/svg"
   xmlns="http://www.w3.org/2000/svg"
   viewBox="0 0 182.61333 76.693336"
   height="76.693336"
   width="182.61333"
   xml:space="preserve"
   id="svg2"
   version="1.1"><metadata
     id="metadata8"><rdf:RDF><cc:Work
         rdf:about=""><dc:format>image/svg+xml</dc:format><dc:type
           rdf:resource="http://purl.org/dc/dcmitype/StillImage" /></cc:Work></rdf:RDF></metadata><defs
     id="defs6" /><g
     transform="matrix(1.3333333,0,0,-1.3333333,0,76.693333)"
     id="g10"><g
       transform="scale(0.1)"
       id="g12"><path
         id="path14"
         style="fill:none;stroke:#1e59ae;stroke-width:10;stroke-linecap:butt;stroke-linejoin:miter;stroke-miterlimit:4;stroke-dasharray:none;stroke-opacity:1"
         d="M 5,5 H 1364.59 V 570.207 H 5 Z" /><path
         id="path16"
         style="fill:#1e59ae;fill-opacity:1;fill-rule:nonzero;stroke:none"
         d="M 59.0039,513.805 H 1308.21 V 54.1992 H 59.0039 V 513.805" /><path
         id="path18"
         style="fill:#ffffff;fill-opacity:1;fill-rule:evenodd;stroke:none"
         d="M 105.801,345.805 H 161 l 24,-44.399 26.402,44.399 h 55.2 L 186.203,194.609 105.801,345.805" /><path
         id="path20"
         style="fill:#ffffff;fill-opacity:1;fill-rule:evenodd;stroke:none"
         d="m 405.801,204.199 h -56.403 l -25.199,44.403 -24,-44.403 h -56.394 l 80.394,152.403 81.602,-152.403" /><path
         id="path22"
         style="fill:#ffffff;fill-opacity:1;fill-rule:evenodd;stroke:none"
         d="m 419.004,356.602 98.398,-62.399 v 51.602 h 49.2 V 194.609 l -99.598,60 v -51.601 h -48 v 153.594" /><path
         id="path24"
         style="fill:#ffffff;fill-opacity:1;fill-rule:evenodd;stroke:none"
         d="m 614.602,457.402 h 55.199 V 345.805 H 701 v 111.597 h 55.195 V 345.805 h 13.203 V 291.809 H 756.195 V 115.41 H 701 V 291.809 H 668.605 V 115.41 h -54.003 v 176.399 h -14.403 v 53.996 h 15.602 l -1.199,111.597" /><path
         id="path26"
         style="fill:#ffffff;fill-opacity:1;fill-rule:evenodd;stroke:none"
         d="m 951.801,277.402 c 0,43.203 -35.996,76.801 -77.996,76.801 -43.203,0 -78,-33.598 -78,-76.801 0,-43.203 34.797,-78 78,-78 42,0 77.996,34.797 77.996,78" /><path
         id="path28"
         style="fill:#1e59ae;fill-opacity:1;fill-rule:evenodd;stroke:none"
         d="m 899.008,277.402 c 0,14.407 -12.012,25.2 -25.203,25.2 -13.203,0 -24.004,-10.793 -24.004,-25.2 0,-13.203 10.801,-25.195 24.004,-25.195 13.191,0 25.203,11.992 25.203,25.195" /><path
         id="path30"
         style="fill:#ffffff;fill-opacity:1;fill-rule:evenodd;stroke:none"
         d="m 1124.59,275 c 0,43.203 -35.99,78.004 -77.98,78.004 -43.21,0 -78.012,-34.801 -78.012,-78.004 0,-41.992 34.802,-77.996 78.012,-77.996 41.99,0 77.98,36.004 77.98,77.996" /><path
         id="path32"
         style="fill:#1e59ae;fill-opacity:1;fill-rule:evenodd;stroke:none"
         d="m 1071.8,276.211 c 0,13.191 -12,23.996 -25.19,23.996 -14.41,0 -25.21,-10.805 -25.21,-23.996 0,-13.203 10.8,-24.004 25.21,-24.004 13.19,0 25.19,10.801 25.19,24.004" /><path
         id="path34"
         style="fill:#ffffff;fill-opacity:1;fill-rule:evenodd;stroke:none"
         d="m 1151,345.805 h 48.01 v -91.196 h 64.79 v -51.601 h -114 l 1.2,142.797" /></g></g></svg>